SplineFontDB: 3.0
FontName: Trocchi
FullName: Trocchi
FamilyName: Trocchi
Weight: Normal
Version: 1.0
FONDName: Trocchi
ItalicAngle: 0
UnderlinePosition: -50
UnderlineWidth: 50
Ascent: 750
Descent: 250
UFOAscent: 750
UFODescent: -250
LayerCount: 2
Layer: 0 0 "Back"  1
Layer: 1 0 "Fore"  0
FSType: 0
OS2Version: 0
OS2_WeightWidthSlopeOnly: 0
OS2_UseTypoMetrics: 0
CreationTime: 1330287526
ModificationTime: 1330287526
PfmFamily: 0
TTFWeight: 400
TTFWidth: 5
LineGap: 0
VLineGap: 0
Panose: 0 0 0 0 0 0 0 0 0 0
OS2TypoAscent: 750
OS2TypoAOffset: 0
OS2TypoDescent: 250
OS2TypoDOffset: 0
OS2TypoLinegap: 0
OS2WinAscent: 1000
OS2WinAOffset: 0
OS2WinDescent: -392
OS2WinDOffset: 0
HheadAscent: 0
HheadAOffset: 1
HheadDescent: 0
HheadDOffset: 1
OS2SubXSize: 650
OS2SubYSize: 600
OS2SubXOff: 0
OS2SubYOff: 75
OS2SupXSize: 650
OS2SupYSize: 600
OS2SupXOff: 0
OS2SupYOff: 350
OS2StrikeYSize: 50
OS2StrikeYPos: 314
OS2Vendor: 'newt'
OS2CodePages: 00000001.00000000
OS2UnicodeRanges: 00000001.00000000.00000000.00000000
Lookup: 4 0 1 "ligaStandardLigaturesinLatinloo"  {"ligaStandardLigaturesinLatinloo subtable"  } ['liga' ('latn' <'dflt' > 'DFLT' <'dflt' > ) ]
DEI: 91125
LangName: 1033 "" "" "" "" "" "Version 1.0" "" "Please refer to the Copyright section for the font trademark attribution notices." "" "vernon adams" "" "" "newtypography.co.uk" 
PickledData: "(dp1
S'com.typemytype.robofont.compileSettings.autohint'
p2
I0
sS'com.typemytype.robofont.compileSettings.decompose'
p3
I0
sS'com.typemytype.robofont.foreground.layerStrokeColor'
p4
(F0.5
F0
F0.5
F0.69999999999999996
tp5
sS'com.typemytype.robofont.compileSettings.releaseMode'
p6
I00
sS'com.typemytype.robofont.shouldAddPointsInSplineConversion'
p7
I00
sS'com.typemytype.robofont.compileSettings.checkOutlines'
p8
I0
sS'com.typemytype.robofont.back.layerStrokeColor'
p9
(F0.5
F1
F0
F0.69999999999999996
tp10
sS'com.typemytype.robofont.layerOrder'
p11
(S'back'
tp12
sS'com.typemytype.robofont.compileSettings.generateFormat'
p13
I1

StartChar: AE
Encoding: 198 198 1
Width: 1190
VWidth: 0
GlyphClass: 1
Flags: W
LayerCount: 2
Fore
SplineSet
325.072 323 m 0
 325.072 251 440.072 292 440.072 202 c 1
 30.0723 202 l 2
 13.0723 202 15.0723 229 15.0723 236 c 0
 15.0723 247 12.7573 266.901 30.0723 269 c 0
 111.757 278.901 187.072 305 232.072 377 c 2
 474.072 768 l 1
 474.072 768 475.072 781 475.072 786 c 0
 475.072 792 476.072 828 461.072 828 c 2
 312.072 828 l 2
 294.427 828 294.072 898.844 294.072 918 c 1
 572.072 918 914.072 910 1174.07 902 c 1
 1174.07 899 1175.07 885 1175.07 882 c 0
 1175.07 877 1174.07 863 1174.07 862 c 0
 1173.05 825.042 1174.5 605 1141.07 605 c 0
 1107.07 605 1095.07 773 1013.07 808 c 0
 944.072 837 845.072 816 784.072 816 c 1
 784.072 597 l 1
 956.072 597 911.072 718 986.072 718 c 1
 986.072 377 l 1
 945.072 377 l 1
 934.072 459 889.072 513 806.072 513 c 0
 756.072 513 769.072 439 769.072 404 c 0
 769.072 290 792.072 268 905.072 268 c 0
 1054.07 268 1098.07 342 1134.07 485 c 1
 1174.07 485 l 1
 1174.07 202 l 1
 1161.07 189 l 1
 1158.07 188 1076.07 187 1045.07 187 c 0
 842.072 187 692.072 191 474.072 202 c 1
 474.072 256 l 1
 622.072 286 l 1
 622.072 512 l 1
 434.072 498 l 1
 408.169 498 338.776 361.252 326.072 337 c 0
 326.072 335 325.072 325 325.072 323 c 0
488.072 606 m 2
 488.072 593 l 1
 622.072 593 l 1
 622.072 808 l 1
 581.558 783.692 488.072 608.363 488.072 606 c 2
EndSplineSet
EndChar

StartChar: B
Encoding: 66 66 2
Width: 717
VWidth: 0
GlyphClass: 1
Flags: W
LayerCount: 2
Fore
SplineSet
376 0 m 2
 15 0 l 1
 15 88 l 1
 134 88 l 1
 134 632 l 1
 15 632 l 1
 15 722 l 1
 376 722 l 2
 489 722 676 693 662 523 c 0
 656 450 608 408 527 385 c 1
 630 358 702 305 702 201 c 0
 702 10 505 0 376 0 c 2
279 325 m 1
 279 88 l 1
 425 88 547 73 547 205 c 0
 547 309 457 326 358 326 c 0
 332 326 305 325 279 325 c 1
279 632 m 1
 279 426 l 1
 358 426 l 2
 437 426 507 433 507 519 c 0
 507 641 404 631 279 632 c 1
EndSplineSet
EndChar

StartChar: C
Encoding: 67 67 3
Width: 706
VWidth: 0
GlyphClass: 1
Flags: W
LayerCount: 2
Fore
SplineSet
15 369 m 0
 15 557 139 737 341 737 c 0
 435 737 516 699 587 628 c 1
 617 722 l 1
 685 722 l 1
 685 388 l 1
 608 388 l 1
 587 513 531 647 380 647 c 0
 219 647 180 502 180 367 c 0
 180 226 224 69 392 69 c 0
 537 69 587 188 608 311 c 1
 691 311 l 1
 687 104 548 -14 362 -14 c 0
 145 -14 15 160 15 369 c 0
EndSplineSet
EndChar

StartChar: D
Encoding: 68 68 4
Width: 808
VWidth: 0
GlyphClass: 1
Flags: W
LayerCount: 2
Fore
SplineSet
15 722 m 1
 288 722 l 2
 552 722 793 702 793 357 c 0
 793 66 642 0 366 0 c 2
 15 0 l 1
 15 87 l 1
 134 87 l 1
 134 632 l 1
 15 632 l 1
 15 722 l 1
279 631 m 1
 279 87 l 1
 319 87 l 2
 544 87 647 106 647 350 c 0
 647 615 518 631 299 631 c 2
 279 631 l 1
EndSplineSet
EndChar

StartChar: E
Encoding: 69 69 5
Width: 761
VWidth: 0
GlyphClass: 1
Flags: W
LayerCount: 2
Fore
SplineSet
15 0 m 1
 15 87 l 1
 134 87 l 1
 134 632 l 1
 15 632 l 1
 15 722 l 1
 746 722 l 1
 746 439 l 1
 626 439 l 1
 626 632 l 1
 279 632 l 1
 279 407 l 1
 437 407 l 1
 437 507 l 1
 522 507 l 1
 522 207 l 1
 437 207 l 1
 437 331 l 1
 279 331 l 1
 279 87 l 1
 626 87 l 1
 626 279 l 1
 746 279 l 1
 746 0 l 1
 15 0 l 1
EndSplineSet
EndChar

StartChar: G
Encoding: 71 71 6
Width: 841
VWidth: 0
GlyphClass: 1
Flags: W
LayerCount: 2
Fore
SplineSet
362 -13 m 1
 130 -10 15 175 15 360 c 0
 15 548 134 737 369 737 c 0
 444 737 516 708 581 649 c 1
 621 722 l 1
 672 722 l 1
 672 449 l 1
 613 449 l 1
 567 550 492 643 377 643 c 0
 226 643 180 491 180 358 c 0
 180 211 239 81 379 81 c 0
 470 81 537 126 537 218 c 2
 537 287 l 1
 406 287 l 1
 406 361 l 1
 826 361 l 1
 826 287 l 1
 687 287 l 1
 687 6 l 1
 628 6 l 1
 582 82 l 1
 535 11 443 -12 362 -13 c 1
EndSplineSet
EndChar

StartChar: H
Encoding: 72 72 7
Width: 853
VWidth: 0
GlyphClass: 1
Flags: W
PickledData: "(dp1
S'com.typemytype.robofont.layerData'
p2
(dp3
S'back'
p4
(dp5
S'name'
p6
S'H'
sS'lib'
p7
(dp8
sS'unicodes'
p9
(tsS'width'
p10
I853
sS'contours'
p11
(tsS'components'
p12
(tsS'anchors'
p13
(tsss."
LayerCount: 2
Fore
SplineSet
831 87 m 1
 831 0 l 1
 454 0 l 1
 454 87 l 1
 567 87 l 1
 567 331 l 1
 286 331 l 1
 286 87 l 1
 398 87 l 1
 398 0 l 1
 22 0 l 1
 22 87 l 1
 141 87 l 1
 141 632 l 1
 22 632 l 1
 22 722 l 1
 398 722 l 1
 398 632 l 1
 286 632 l 1
 286 407 l 1
 567 407 l 1
 567 632 l 1
 454 632 l 1
 454 722 l 1
 831 722 l 1
 831 632 l 1
 712 632 l 1
 712 87 l 1
 831 87 l 1
EndSplineSet
EndChar

StartChar: I
Encoding: 73 73 8
Width: 406
VWidth: 0
GlyphClass: 1
Flags: W
LayerCount: 2
Fore
SplineSet
279 87 m 1
 391 87 l 1
 391 0 l 1
 15 0 l 1
 15 87 l 1
 134 87 l 1
 134 632 l 1
 15 632 l 1
 15 722 l 1
 391 722 l 1
 391 632 l 1
 279 632 l 1
 279 87 l 1
EndSplineSet
EndChar

StartChar: J
Encoding: 74 74 9
Width: 655
VWidth: 0
GlyphClass: 1
Flags: W
LayerCount: 2
Fore
SplineSet
15 184 m 0
 15 194 16 244 17 254 c 1
 32 300 66 300 102 300 c 0
 161 300 200 260 200 198 c 0
 200 148 143 145 143 106 c 0
 143 79 188 70 208 70 c 0
 387 70 328 404 328 516 c 2
 328 650 l 2
 328 722 233 718 186 721 c 1
 186 806 l 1
 610 806 l 2
 644 806 640 787 640 765 c 0
 640 672 522 754 497 678 c 1
 486 499 485 320 469 141 c 1
 424 31 332 -14 215 -14 c 0
 92 -14 15 68 15 184 c 0
EndSplineSet
EndChar

StartChar: K
Encoding: 75 75 10
Width: 921
VWidth: 0
GlyphClass: 1
Flags: W
LayerCount: 2
Fore
SplineSet
481 0 m 1
 480 5 476 30 476 35 c 0
 476 110 554 52 566 113 c 0
 566 115 556 145 552 155 c 0
 524 215 455 353 453 353 c 2
 425 353 l 2
 417 353 358 294 340 268 c 0
 324 246 325 195 325 168 c 0
 325 44 450 120 450 0 c 1
 15 0 l 1
 15 71 l 1
 88 76 170 78 170 170 c 2
 170 678 l 2
 170 689 128 707 128 707 c 1
 113 710 44 720 29 721 c 1
 29 791 l 1
 411 791 l 2
 437 791 442 756 442 740 c 0
 442 688 340 725 340 678 c 2
 340 410 l 1
 347 413 377 433 382 438 c 0
 413 467 551 605 580 636 c 1
 586 638 596 658 594 664 c 0
 574 747 473 672 473 796 c 1
 517 796 748 793 792 791 c 0
 809 791 889 781 905 777 c 1
 906 774 906 759 906 756 c 0
 906 736 906 724 891 707 c 1
 876 703 807 683 792 678 c 0
 786 676 766 666 764 664 c 2
 580 495 l 2
 580 494 579 486 579 483 c 0
 579 461 584 444 594 424 c 0
 619 375 738 147 764 99 c 1
 848 48 897 109 897 -17 c 1
 758 -17 620 -11 481 0 c 1
EndSplineSet
EndChar

StartChar: L
Encoding: 76 76 11
Width: 798
VWidth: 0
GlyphClass: 1
Flags: W
LayerCount: 2
Fore
SplineSet
30.1875 -14 m 1
 12.1875 -10 15.1875 9 15.1875 21 c 0
 15.1875 123 185.188 -11 185.188 184 c 2
 185.188 664 l 2
 185.188 709 44.1875 676 44.1875 707 c 2
 44.1875 777 l 1
 510.188 777 l 2
 530.188 777 526.188 740 526.188 735 c 0
 526.188 724 530.188 696 510.188 693 c 0
 503.188 692 399.188 691 369.188 664 c 1
 346.188 564 353.188 415 353.188 325 c 0
 353.188 291 354.188 133 355.188 99 c 1
 362.188 88 386.188 71 397.188 71 c 2
 567.188 71 l 2
 581.188 71 643.188 106 652.188 127 c 2
 736.188 339 l 1
 783.188 339 l 1
 783.188 226 781.188 100 765.188 -14 c 1
 734.188 -33 707.188 -29 674.188 -29 c 0
 660.188 -29 615.188 -28 609.188 -28 c 0
 522.188 -27 117.188 -17 30.1875 -14 c 1
EndSplineSet
EndChar

StartChar: M
Encoding: 77 77 12
Width: 1043
VWidth: 0
GlyphClass: 1
Flags: W
LayerCount: 2
Fore
SplineSet
24 0 m 1
 24 87 l 1
 152 87 l 1
 152 632 l 1
 15 632 l 1
 15 722 l 1
 369 722 l 1
 518 323 l 1
 528 289 l 1
 535 315 l 1
 671 722 l 1
 1021 722 l 1
 1021 632 l 1
 884 632 l 1
 884 87 l 1
 1028 87 l 1
 1028 0 l 1
 633 0 l 1
 633 87 l 1
 740 87 l 1
 740 618 l 1
 550 26 l 2
 542 1 524 0 512 0 c 0
 496 0 483 4 476 23 c 2
 280 570 l 1
 262 626 l 1
 262 87 l 1
 385 87 l 1
 385 0 l 1
 24 0 l 1
EndSplineSet
EndChar

StartChar: N
Encoding: 78 78 13
Width: 809
VWidth: 0
GlyphClass: 1
Flags: W
LayerCount: 2
Fore
SplineSet
27 89 m 0
 27 125 142 114 142 140 c 2
 142 626 l 2
 142 636 104 652 104 652 c 1
 91 656 28 674 15 677 c 1
 15 741 l 1
 297 741 l 1
 577 307 l 1
 590 307 l 1
 590 600 l 2
 590 699 457 630 457 741 c 1
 794 741 l 1
 794 677 l 1
 779 674 679 663 679 613 c 2
 679 38 l 1
 564 38 l 1
 264 530 l 1
 245 511 l 1
 245 191 l 2
 245 126 325 109 373 102 c 1
 373 98 374 80 374 76 c 0
 374 72 378 38 360 38 c 2
 40 38 l 2
 36 38 27 74 27 89 c 0
245 553 m 0
 242 553 242 546 245 546 c 0
 248 546 248 553 245 553 c 0
EndSplineSet
EndChar

StartChar: O
Encoding: 79 79 14
Width: 790
VWidth: 0
GlyphClass: 1
Flags: W
PickledData: "(dp1
S'com.typemytype.robofont.layerData'
p2
(dp3
S'back'
p4
(dp5
S'name'
p6
S'O'
sS'lib'
p7
(dp8
sS'unicodes'
p9
(tsS'width'
p10
I790
sS'contours'
p11
(tsS'components'
p12
(tsS'anchors'
p13
(tsss."
LayerCount: 2
Fore
SplineSet
395 642 m 1
 271 642 209 502 209 362 c 0
 209 222 271 82 395 82 c 0
 519 82 581 220 581 360 c 0
 581 499 519 639 395 642 c 1
395 -13 m 0
 161 -13 45 174 45 362 c 0
 45 549 161 737 395 737 c 0
 628 737 745 549 745 362 c 0
 745 174 628 -13 395 -13 c 0
EndSplineSet
EndChar

StartChar: OE
Encoding: 338 338 15
Width: 1094
VWidth: 0
GlyphClass: 1
Flags: W
LayerCount: 2
Fore
SplineSet
1079 875 m 1
 1079 862 l 1
 1077 822 1068 633 1066 593 c 1
 1063 589 1044 579 1039 579 c 0
 1004 579 1049 796 776 796 c 0
 763 796 702 795 689 795 c 1
 665 708 679 683 679 584 c 1
 786 584 807 589 850 700 c 1
 893 700 l 1
 893 594 885 463 877 364 c 1
 837 364 l 1
 827 437 786 499 708 499 c 0
 700 499 675 502 675 485 c 2
 675 269 l 1
 702 256 l 2
 706 255 757 254 774 254 c 0
 979 254 965 290 1025 471 c 0
 1027 475 1036 485 1039 485 c 0
 1080 485 1079 482 1079 461 c 2
 1079 444 l 1
 1075 364 1066 175 1066 175 c 1
 1039 162 l 2
 1035 161 949 160 916 160 c 0
 697 160 534 165 298 175 c 1
 130 194 15 365 15 525 c 0
 15 722 166 861 352 889 c 1
 388 889 558 890 594 890 c 0
 774 890 900 892 1079 875 c 1
176 525 m 0
 176 401 207 255 359 255 c 0
 520 255 528 420 528 545 c 0
 528 675 523 796 369 796 c 0
 214 796 176 659 176 525 c 0
EndSplineSet
EndChar

StartChar: P
Encoding: 80 80 16
Width: 687
VWidth: 0
GlyphClass: 1
Flags: W
LayerCount: 2
Fore
SplineSet
15 722 m 1
 376 722 l 2
 493 722 672 704 672 513 c 0
 672 321 496 307 329 307 c 2
 279 307 l 1
 279 87 l 1
 401 87 l 1
 401 0 l 1
 15 0 l 1
 15 87 l 1
 134 87 l 1
 134 632 l 1
 15 632 l 1
 15 722 l 1
279 632 m 1
 279 387 l 1
 299 387 318 386 338 386 c 0
 432 386 517 396 517 509 c 0
 517 642 410 631 279 632 c 1
EndSplineSet
EndChar

StartChar: Q
Encoding: 81 81 17
Width: 828
VWidth: 0
GlyphClass: 1
Flags: W
LayerCount: 2
Fore
SplineSet
502 13 m 1
 444 -14 413 -15 355 -15 c 0
 146 -15 15 157 15 355 c 0
 15 551 162 717 361 717 c 0
 553 717 695 561 695 374 c 0
 695 275 616 158 616 108 c 0
 616 83 660 63 682 63 c 0
 766 63 684 184 813 184 c 1
 813 86 792 -78 660 -78 c 0
 596 -78 545 -30 502 13 c 1
257 130 m 0
 257 72 307 75 355 75 c 0
 369 75 451 69 451 108 c 0
 451 160 383 205 335 205 c 0
 296 205 257 168 257 130 c 0
355 627 m 0
 267 627 182 576 182 473 c 2
 182 213 l 1
 236 213 269 295 334 295 c 0
 404 295 454 229 515 229 c 0
 516 229 525 230 527 230 c 1
 533 273 540 320 540 365 c 0
 540 493 500 627 355 627 c 0
EndSplineSet
EndChar

StartChar: R
Encoding: 82 82 18
Width: 803
VWidth: 0
GlyphClass: 1
Flags: W
LayerCount: 2
Fore
SplineSet
285.188 151 m 2
 285.188 144 283.188 80 298.188 76 c 1
 426.188 51 l 1
 426.188 51 428.188 37 428.188 31 c 0
 428.188 28 432.188 -13 413.188 -13 c 2
 30.1875 -13 l 2
 12.1875 -13 15.1875 23 15.1875 27 c 0
 15.1875 105 134.188 23 145.188 102 c 1
 156.188 254 159.188 354 159.188 497 c 0
 159.188 522 158.188 586 157.188 588 c 2
 132.188 620 l 1
 30.1875 620 l 1
 30.1875 690 l 1
 490.188 690 l 2
 595.188 690 696.188 609 696.188 501 c 0
 696.188 368 585.188 380 541.188 307 c 1
 612.188 247 627.188 180 643.188 89 c 1
 651.188 77 660.188 63 675.188 63 c 0
 750.188 63 685.188 193 788.188 193 c 1
 788.188 74 767.188 -26 630.188 -26 c 0
 418.188 -26 533.188 294 439.188 294 c 2
 298.188 294 l 2
 296.188 294 288.188 222 285.188 191 c 1
 285.188 151 l 2
296.188 462 m 0
 296.188 446 297.188 399 298.188 396 c 1
 311.188 383 l 2
 312.188 383 337.188 382 347.188 382 c 0
 451.188 382 542.188 389 542.188 509 c 0
 542.188 607 437.188 614 360.188 614 c 0
 277.188 614 296.188 529 296.188 462 c 0
EndSplineSet
EndChar

StartChar: S
Encoding: 83 83 19
Width: 906
VWidth: 0
GlyphClass: 1
Flags: W
PickledData: "(dp1
S'com.typemytype.robofont.layerData'
p2
(dp3
S'back'
p4
(dp5
S'name'
p6
S'S'
sS'lib'
p7
(dp8
sS'unicodes'
p9
(tsS'width'
p10
F906
sS'contours'
p11
((dp12
S'points'
p13
((dp14
S'segmentType'
p15
S'curve'
p16
sS'x'
F394
sS'smooth'
p17
I01
sS'y'
F99
s(dp18
S'y'
F99
sS'x'
F381
sg17
I00
s(dp19
S'y'
F4
sS'x'
F361
sg17
I00
s(dp20
g15
S'curve'
p21
sS'x'
F354
sg17
I01
sS'y'
F4
s(dp22
g15
S'line'
p23
sS'x'
F286
sg17
I01
sS'y'
F4
s(dp24
S'y'
F4
sS'x'
F282
sg17
I00
s(dp25
S'y'
F26
sS'x'
F281
sg17
I00
s(dp26
g15
S'curve'
p27
sS'x'
F281
sg17
I01
sS'y'
F34
s(dp28
g15
S'line'
p29
sS'x'
F281
sg17
I01
sS'y'
F40
s(dp30
S'y'
F75
sS'x'
F282
sg17
I00
s(dp31
S'y'
F236
sS'x'
F286
sg17
I00
s(dp32
g15
S'curve'
p33
sS'x'
F286
sg17
I00
sS'y'
F271
s(dp34
g15
S'line'
p35
sS'x'
F361
sg17
I00
sS'y'
F271
s(dp36
g15
S'line'
p37
sS'x'
F438
sg17
I01
sS'y'
F161
s(dp38
S'y'
F104
sS'x'
F478
sg17
I00
s(dp39
S'y'
F87
sS'x'
F567
sg17
I00
s(dp40
g15
S'curve'
p41
sS'x'
F632
sg17
I01
sS'y'
F87
s(dp42
S'y'
F87
sS'x'
F681
sg17
I00
s(dp43
S'y'
F106
sS'x'
F742
sg17
I00
s(dp44
g15
S'curve'
p45
sS'x'
F742
sg17
I01
sS'y'
F166
s(dp46
S'y'
F217
sS'x'
F742
sg17
I00
s(dp47
S'y'
F247
sS'x'
F685
sg17
I00
s(dp48
g15
S'curve'
p49
sS'x'
F642
sg17
I01
sS'y'
F255
s(dp50
g15
S'line'
p51
sS'x'
F433
sg17
I01
sS'y'
F297
s(dp52
S'y'
F298
sS'x'
F428
sg17
I00
s(dp53
S'y'
F331
sS'x'
F370
sg17
I00
s(dp54
g15
S'curve'
p55
sS'x'
F349
sg17
I01
sS'y'
F344
s(dp56
S'y'
F381
sS'x'
F293
sg17
I00
s(dp57
S'y'
F468
sS'x'
F276
sg17
I00
s(dp58
g15
S'curve'
p59
sS'x'
F276
sg17
I01
sS'y'
F528
s(dp60
S'y'
F660
sS'x'
F276
sg17
I00
s(dp61
S'y'
F737
sS'x'
F379
sg17
I00
s(dp62
g15
S'curve'
p63
sS'x'
F503
sg17
I01
sS'y'
F737
s(dp64
S'y'
F737
sS'x'
F571
sg17
I00
s(dp65
S'y'
F695
sS'x'
F624
sg17
I00
s(dp66
g15
S'curve'
p67
sS'x'
F669
sg17
I00
sS'y'
F648
s(dp68
g15
S'line'
p69
sS'x'
F671
sg17
I00
sS'y'
F647
s(dp70
S'y'
F647
sS'x'
F677
sg17
I00
s(dp71
S'y'
F653
sS'x'
F677
sg17
I00
s(dp72
g15
S'curve'
p73
sS'x'
F679
sg17
I01
sS'y'
F658
s(dp74
S'y'
F669
sS'x'
F683
sg17
I00
s(dp75
S'y'
F721
sS'x'
F701
sg17
I00
s(dp76
g15
S'curve'
p77
sS'x'
F705
sg17
I00
sS'y'
F731
s(dp78
g15
S'line'
p79
sS'x'
F710
sg17
I00
sS'y'
F737
s(dp80
g15
S'line'
p81
sS'x'
F783
sg17
I00
sS'y'
F737
s(dp82
g15
S'line'
p83
sS'x'
F783
sg17
I00
sS'y'
F459
s(dp84
g15
S'line'
p85
sS'x'
F700
sg17
I00
sS'y'
F459
s(dp86
S'y'
F544
sS'x'
F661
sg17
I00
s(dp87
S'y'
F632
sS'x'
F585
sg17
I00
s(dp88
g15
S'curve'
p89
sS'x'
F483
sg17
I01
sS'y'
F632
s(dp90
S'y'
F632
sS'x'
F431
sg17
I00
s(dp91
S'y'
F608
sS'x'
F385
sg17
I00
s(dp92
g15
S'curve'
p93
sS'x'
F385
sg17
I01
sS'y'
F552
s(dp94
S'y'
F516
sS'x'
F385
sg17
I00
s(dp95
S'y'
F483
sS'x'
F411
sg17
I00
s(dp96
g15
S'curve'
p97
sS'x'
F448
sg17
I01
sS'y'
F475
s(dp98
g15
S'line'
p99
sS'x'
F710
sg17
I01
sS'y'
F418
s(dp100
S'y'
F397
sS'x'
F802
sg17
I00
s(dp101
S'y'
F300
sS'x'
F862
sg17
I00
s(dp102
g15
S'curve'
p103
sS'x'
F862
sg17
I01
sS'y'
F211
s(dp104
S'y'
F74
sS'x'
F862
sg17
I00
s(dp105
S'y'
F-12
sS'x'
F768
sg17
I00
s(dp106
g15
S'curve'
p107
sS'x'
F637
sg17
I01
sS'y'
F-12
s(dp108
S'y'
F-12
sS'x'
F571
sg17
I00
s(dp109
S'y'
F0
sS'x'
F496
sg17
I00
s(dp110
g15
S'curve'
p111
sS'x'
F443
sg17
I01
sS'y'
F46
s(dp112
S'y'
F50
sS'x'
F438
sg17
I00
s(dp113
S'y'
F99
sS'x'
F403
sg17
I00
stp114
stp115
sS'components'
p116
(tsS'anchors'
p117
(tsss."
LayerCount: 2
Fore
SplineSet
637 -12 m 0
 768.015266286 -12 862 74 862 211 c 0
 862 300 816 385 697 414 c 2
 448 475 l 2
 401 486 385 516 385 552 c 0
 385 612 446 632 518 632 c 0
 631 632 674 562 711 480 c 1
 783 480 l 1
 783 737 l 1
 722 737 l 1
 722 737 705 674 701 663 c 0
 699 658 699 652 693 652 c 1
 693 652 623 737 511 737 c 0
 375 737 274 648 274 505 c 0
 274 410 322 338 434 313 c 2
 647 266 l 2
 715 251 742 217 742 166 c 0
 742 106 681 87 632 87 c 0
 447 87 389 258 389 258 c 1
 389 258 284 260 284 256 c 0
 284 217 283 4 286 4 c 2
 354 4 l 2
 361 4 393 102 394 102 c 1
 394 102 l 1
 435.347457627 52.5847457627 482 -12 637 -12 c 0
EndSplineSet
EndChar

StartChar: T
Encoding: 84 84 20
Width: 732
VWidth: 0
GlyphClass: 1
Flags: W
LayerCount: 2
Fore
SplineSet
140 35 m 1
 140 112 l 1
 279 112 l 1
 279 676 l 2
 279 680 270 690 266 690 c 1
 264 691 233 692 222 692 c 0
 108 692 82 553 56 467 c 1
 54 467 45 466 43 466 c 0
 34 466 15 466 15 481 c 2
 15 774 l 1
 698 774 l 2
 701 774 711 725 712 704 c 0
 713 669 717 503 717 467 c 1
 656 467 l 1
 609 620 612 682 447 682 c 1
 447 112 l 1
 586 112 l 1
 586 17 l 1
 468 17 272 15 140 35 c 1
EndSplineSet
EndChar

StartChar: U
Encoding: 85 85 21
Width: 941
VWidth: 0
GlyphClass: 1
Flags: W
LayerCount: 2
Fore
SplineSet
15 779 m 1
 146 779 340 779 480 760 c 1
 481 756 482 736 482 732 c 0
 482 645 341 717 341 649 c 2
 341 244 l 2
 341 142 414 104 501 104 c 0
 569 104 676 122 676 216 c 2
 676 635 l 2
 676 729 531 613 531 760 c 1
 912 760 l 2
 917 760 926 750 926 746 c 0
 926 737 917 698 912 690 c 1
 905 690 803 689 773 662 c 1
 742 409 860 -7 480 -7 c 0
 394 -7 195 54 195 175 c 2
 195 635 l 2
 195 736 15 621 15 779 c 1
EndSplineSet
EndChar

StartChar: V
Encoding: 86 86 22
Width: 909
VWidth: 0
GlyphClass: 1
Flags: W
LayerCount: 2
Fore
SplineSet
16.3516 690 m 1
 16.3516 695 15.3516 714 15.3516 718 c 0
 15.3516 729 11.3516 756 30.3516 760 c 1
 50.3516 760 143.352 761 163.352 761 c 0
 271.352 761 339.352 762 448.352 746 c 1
 448.352 669 l 1
 337.352 669 l 2
 326.352 669 322.352 651 322.352 642 c 0
 322.352 641 323.352 636 323.352 635 c 0
 341.352 580 429.352 326 448.352 272 c 1
 452.352 264 470.352 214 490.352 203 c 1
 630.352 607 l 1
 630.352 614 l 2
 630.352 710 499.352 606 499.352 746 c 1
 894.352 746 l 1
 894.352 676 l 1
 859.352 673 774.352 655 755.352 607 c 2
 518.352 -7 l 1
 393.352 -7 l 1
 170.352 593 l 2
 140.352 672 108.352 694 16.3516 690 c 1
EndSplineSet
EndChar

StartChar: W
Encoding: 87 87 23
Width: 1243
VWidth: 0
GlyphClass: 1
Flags: W
LayerCount: 2
Fore
SplineSet
28 862 m 1
 26 871 15 904 15 923 c 0
 15 933 16 937 28 943 c 1
 48 943 137 944 156 944 c 0
 240 944 310 947 392 929 c 1
 394 924 397 901 397 896 c 0
 397 829 337 874 311 822 c 1
 329 771 414 535 432 485 c 0
 438 470 446 454 459 444 c 1
 473 454 481 470 486 485 c 0
 499 519 555 679 567 714 c 1
 567 718 569 737 569 741 c 0
 569 870 431 818 431 929 c 1
 847 929 l 1
 847 811 714 889 714 801 c 0
 714 798 715 784 715 781 c 1
 733 733 818 506 836 458 c 0
 841 445 842 430 857 430 c 0
 871 430 872 445 877 458 c 0
 892 500 958 698 971 741 c 1
 971 747 972 775 972 781 c 0
 972 848 953 843 877 862 c 1
 871 875 863 893 863 910 c 0
 863 917 865 929 877 929 c 2
 1214 929 l 2
 1230 929 1228 903 1228 896 c 0
 1228 823 1103 849 1065 741 c 2
 890 242 l 1
 877 215 l 2
 876 215 853 213 844 213 c 0
 828 213 792 205 783 229 c 2
 634 593 l 1
 621 593 l 1
 473 215 l 2
 472 215 454 213 446 213 c 0
 429 213 401 207 392 229 c 2
 150 822 l 1
 135 856 42 861 28 862 c 1
EndSplineSet
EndChar

StartChar: X
Encoding: 88 88 24
Width: 962
VWidth: 0
GlyphClass: 1
Flags: W
LayerCount: 2
Fore
SplineSet
471.352 28 m 0
 471.352 34 475.352 58 476.352 63 c 1
 504.352 65 575.352 60 575.352 105 c 0
 575.352 107 574.352 117 574.352 119 c 1
 560.352 138 491.352 226 476.352 244 c 0
 472.352 249 453.352 268 448.352 272 c 1
 431.352 254 353.352 166 337.352 147 c 0
 324.352 132 322.352 121 322.352 104 c 0
 322.352 39 446.352 110 446.352 -7 c 1
 30.3516 -7 l 2
 11.3516 -7 15.3516 33 15.3516 37 c 0
 15.3516 85 185.352 135 225.352 175 c 0
 240.352 189 328.352 287 351.352 314 c 0
 361.352 326 379.352 344 379.352 363 c 2
 379.352 370 l 1
 350.352 408 213.352 583 184.352 621 c 0
 173.352 634 44.3516 676 44.3516 676 c 1
 44.3516 746 l 1
 448.352 746 l 1
 448.352 665 l 1
 432.352 665 378.352 663 378.352 643 c 0
 378.352 629 385.352 618 393.352 607 c 0
 416.352 573 474.352 495 476.352 495 c 2
 490.352 495 l 2
 507.352 495 589.352 587 589.352 620 c 0
 589.352 685 490.352 625 490.352 712 c 0
 490.352 720 492.352 732 504.352 732 c 2
 894.352 732 l 1
 894.352 662 l 2
 894.352 639 757.352 623 727.352 593 c 0
 677.352 543 560.352 416 560.352 412 c 2
 560.352 384 l 1
 797.352 91 l 2
 851.352 24 947.352 103 947.352 -20 c 1
 532.352 -20 l 2
 478.352 -20 471.352 -15 471.352 28 c 0
EndSplineSet
EndChar

StartChar: Y
Encoding: 89 89 25
Width: 943
VWidth: 0
GlyphClass: 1
Flags: W
LayerCount: 2
Fore
SplineSet
211.352 7 m 0
 211.352 11 208.352 56 225.352 56 c 2
 337.352 56 l 1
 365.352 91 l 1
 365.352 286 l 1
 156.352 607 l 2
 119.352 663 15.3516 616 15.3516 688 c 0
 15.3516 699 11.3516 728 30.3516 732 c 1
 41.3516 732 90.3516 733 100.352 733 c 0
 234.352 733 314.352 728 476.352 718 c 1
 476.352 642 l 1
 365.352 642 l 2
 355.352 642 350.352 622 350.352 613 c 0
 350.352 612 351.352 607 351.352 607 c 1
 490.352 384 l 2
 491.352 383 495.352 383 497.352 383 c 0
 528.352 383 644.352 549 644.352 600 c 0
 644.352 646 546.352 649 532.352 649 c 1
 532.352 718 l 1
 928.352 718 l 1
 928.352 599 849.352 638 769.352 579 c 1
 737.352 535 591.352 330 560.352 286 c 0
 529.352 242 531.352 184 531.352 133 c 0
 531.352 122 532.352 74 532.352 63 c 1
 560.352 39 642.352 36 658.352 35 c 1
 658.352 -34 l 1
 225.352 -34 l 2
 206.352 -34 211.352 2 211.352 7 c 0
EndSplineSet
EndChar

StartChar: Z
Encoding: 90 90 26
Width: 756
VWidth: 0
GlyphClass: 1
Flags: W
LayerCount: 2
Fore
SplineSet
15 -48 m 1
 15 77 l 1
 531 607 l 1
 294 607 l 2
 291 607 271 597 266 593 c 0
 197 535 176 491 141 398 c 1
 95 398 l 1
 95 492 96 608 113 704 c 1
 138 708 255 718 280 718 c 0
 349 718 671 708 740 704 c 1
 740 698 741 669 741 662 c 0
 741 642 743 596 726 579 c 2
 224 77 l 1
 224 49 l 1
 461 49 l 2
 617 49 586 291 690 291 c 1
 690 255 686 85 684 49 c 0
 684 37 674 -21 670 -34 c 0
 669 -39 660 -48 656 -48 c 2
 15 -48 l 1
EndSplineSet
EndChar

StartChar: _11
Encoding: 65537 -1 27
Width: 600
VWidth: 0
GlyphClass: 1
Flags: W
LayerCount: 2
Fore
SplineSet
15 205 m 0
 15 258 42 309 97 326 c 2
 280 382 l 2
 317 393 342 426 342 464 c 0
 342 528 291 541 237 541 c 0
 205 541 153 543 133 510 c 1
 167 506 194 488 194 451 c 0
 194 413 162 382 124 382 c 0
 75 382 46 419 46 466 c 0
 46 579 170 617 263 617 c 0
 341 617 459 590 459 489 c 2
 459 189 l 2
 459 178 472 168 481 168 c 0
 524 168 523 250 525 270 c 1
 530 275 l 1
 585 275 l 1
 585 183 556 91 450 91 c 0
 386 91 348 127 331 189 c 1
 331 188 327 184 326 183 c 0
 280 119 240 81 157 81 c 0
 79 81 15 123 15 205 c 0
127 215 m 0
 127 179 151 158 186 158 c 0
 249 158 291 207 331 250 c 0
 349 269 343 341 343 362 c 1
 331 362 l 1
 158 270 l 2
 140 261 127 234 127 215 c 0
EndSplineSet
EndChar

StartChar: _19
Encoding: 65538 -1 28
Width: 692
VWidth: 0
GlyphClass: 1
Flags: W
LayerCount: 2
Fore
SplineSet
131 60 m 0
 101 60 117 -14 52 -14 c 0
 45 -14 28 -17 25 -4 c 1
 16 85 15 147 15 233 c 0
 15 251 16 296 16 298 c 1
 25 308 l 1
 98 308 l 1
 148 180 236 87 381 87 c 0
 436 87 521 102 521 175 c 0
 521 205 495 235 465 243 c 2
 172 326 l 2
 89 349 25 427 25 514 c 0
 25 660 141 758 284 758 c 0
 355 758 449 726 511 684 c 1
 551 708 522 740 576 740 c 0
 654 740 623 587 623 547 c 0
 623 526 622 468 621 464 c 1
 612 454 l 1
 548 454 l 2
 547 454 540 461 539 464 c 0
 478 565 423 648 295 648 c 0
 236 648 180 632 180 564 c 0
 180 526 188 525 227 510 c 1
 267 500 453 448 493 436 c 0
 581 409 677 343 677 239 c 0
 677 71 550 -24 389 -24 c 0
 373 -24 330 -23 328 -23 c 0
 288.811 -13.2028 202.491 16.8696 163 42 c 1
 151 48 144 60 131 60 c 0
EndSplineSet
EndChar

StartChar: _20
Encoding: 65539 -1 29
Width: 626
VWidth: 0
GlyphClass: 1
Flags: W
LayerCount: 2
Fore
SplineSet
15 633 m 1
 15 721 l 1
 15 721 28 727 33 730 c 0
 189 792 207 892 244 1042 c 0
 245 1044 251 1051 253 1051 c 2
 327 1051 l 2
 328 1051 334 1044 336 1042 c 0
 339 1036 345 1017 345 1014 c 2
 345 757 l 1
 354 748 l 1
 380 749 502 749 528 748 c 0
 539 748 565 741 565 739 c 2
 565 633 l 1
 345 633 l 1
 345 179 l 2
 345 139 369 105 409 105 c 0
 509 105 506 282 510 344 c 1
 521 346 572 352 584 354 c 1
 589 354 l 2
 605 354 611 326 611 314 c 0
 611 149 575 -23 380 -23 c 0
 123 -23 166 170 161 363 c 1
 160 444 153 633 152 633 c 2
 15 633 l 1
EndSplineSet
EndChar

StartChar: _21
Encoding: 65540 -1 30
Width: 784
VWidth: 0
GlyphClass: 1
Flags: W
LayerCount: 2
Fore
SplineSet
15 387 m 0
 15 610 193 758 405 758 c 0
 637 758 769 572 769 357 c 0
 769 145 603 -23 389 -23 c 0
 155 -23 15 165 15 387 c 0
198 345 m 0
 198 204 241 78 401 78 c 0
 510 78 562 157 584 253 c 1
 585 269 585 346 585 363 c 0
 585 503 566 657 390 657 c 0
 213 657 198 483 198 345 c 0
EndSplineSet
EndChar

StartChar: _23
Encoding: 65541 -1 31
Width: 480
VWidth: 0
GlyphClass: 1
Flags: W
LayerCount: 2
Fore
SplineSet
15 5 m 1
 15 87 l 2
 15 116 161 49 161 198 c 2
 161 610 l 2
 161 619 132 637 125 638 c 0
 111 640 47 647 33 647 c 1
 30 649 24 662 24 665 c 0
 24 686 30 737 33 739 c 2
 51 748 l 1
 336 739 l 1
 336 601 l 2
 336 456 326 311 326 166 c 0
 326 94 395 92 455 87 c 1
 462 72 465 65 465 51 c 0
 465 34 461 24 455 5 c 1
 405 3 174 -3 125 -4 c 0
 119 -4 76 -5 63 -5 c 0
 52 -5 24 -4 24 -4 c 1
 15 5 l 1
160 966 m 0
 160 1029 198 1061 259 1061 c 0
 322 1061 355 1029 355 969 c 0
 355 909 325 858 258 858 c 0
 190 858 160 907 160 966 c 0
EndSplineSet
EndChar

StartChar: _25
Encoding: 65542 -1 32
Width: 371
VWidth: 0
GlyphClass: 1
Flags: W
LayerCount: 2
Fore
SplineSet
25 4 m 1
 25 8 24 28 24 32 c 0
 24 128 126 -17 126 194 c 0
 126 278 124 328 117 426 c 1
 94 490 15 428 15 500 c 0
 15 507 15 526 16 527 c 1
 16 530 23 536 25 536 c 2
 236 536 l 1
 241 415 222 217 254 87 c 0
 265 43 356 91 356 37 c 0
 356 21 351 4 337 -5 c 1
 263 -5 l 2
 172 -5 130 -4 25 4 c 1
97 712 m 0
 97 767 132 785 180 785 c 0
 223 785 246 762 246 719 c 0
 246 665 224 636 168 636 c 0
 127 636 97 672 97 712 c 0
EndSplineSet
EndChar

StartChar: _26
Encoding: 65543 -1 33
Width: 554
VWidth: 0
GlyphClass: 1
Flags: W
LayerCount: 2
Fore
SplineSet
25.2988 -5 m 1
 25.2988 59 l 2
 25.2988 76 126.299 58 126.299 96 c 2
 126.299 399 l 2
 126.299 403 115.299 458 98.2988 458 c 2
 25.2988 458 l 2
 12.2988 458 15.2988 495 15.2988 495 c 1
 15.2988 536 32.2988 534 80.2988 536 c 0
 104.299 537 216.299 540 240.299 540 c 1
 240.299 408 l 1
 283.299 415 280.299 547 412.299 547 c 0
 487.299 547 539.299 502 539.299 421 c 0
 539.299 379 496.299 343 456.299 343 c 0
 422.299 343 391.299 368 391.299 403 c 0
 391.299 433 429.299 446 429.299 467 c 0
 429.299 485 408.299 482 397.299 482 c 0
 268.299 482 254.299 268 254.299 179 c 2
 254.299 105 l 1
 269.299 64 318.299 63 355.299 59 c 1
 355.299 -5 l 1
 25.2988 -5 l 1
EndSplineSet
EndChar

StartChar: _27
Encoding: 65544 -1 34
Width: 619
VWidth: 0
GlyphClass: 1
Flags: W
LayerCount: 2
Fore
SplineSet
15 128 m 0
 15 349 328 273 328 380 c 0
 328 448 288 473 225 473 c 0
 214 473 144 479 144 449 c 0
 144 427 164 418 164 391 c 0
 164 346 145 323 97 323 c 0
 50 323 25 364 25 408 c 0
 25 518 166 537 246 537 c 0
 333 537 452 516 452 399 c 2
 452 105 l 2
 452 85 477 77 493 77 c 0
 557 77 547 184 548 215 c 1
 552 215 568 216 571 216 c 0
 577 216 601 220 603 206 c 0
 604 196 604 151 604 142 c 0
 604 50 585 -6 483 -6 c 0
 376 -6 344 70 328 70 c 0
 316 70 251 -15 163 -15 c 0
 80 -15 15 38 15 128 c 0
145 151 m 0
 145 116 166 77 204 77 c 0
 300 77 329 157 329 240 c 0
 329 266 327 271 301 271 c 0
 237 271 145 226 145 151 c 0
EndSplineSet
EndChar

StartChar: _28
Encoding: 65545 -1 35
Width: 1041
VWidth: 0
GlyphClass: 1
Flags: W
LayerCount: 2
Fore
SplineSet
15 38 m 0
 15 44 16 59 17 59 c 2
 117 79 l 1
 117 426 l 2
 117 487 15 410 15 505 c 0
 15 511 16 526 17 527 c 2
 35 536 l 1
 250 536 l 1
 250 463 l 1
 264 463 l 1
 308 512 351 555 420 555 c 0
 534 555 520 479 585 435 c 1
 666 490 606 547 765 547 c 0
 840 547 901 515 916 435 c 1
 917 400 924 233 925 197 c 0
 925 192 916 73 952 73 c 2
 1026 73 l 1
 1026 -5 l 1
 714 -5 l 1
 714 59 l 1
 756 68 783 67 796 105 c 1
 797 125 797 218 797 238 c 0
 797 293 826 473 722 473 c 0
 585 473 585 296 585 200 c 0
 585 -14 678 118 678 31 c 0
 678 20 679 -5 659 -5 c 2
 383 -5 l 2
 368 -5 364 32 364 41 c 0
 364 44 365 57 365 59 c 1
 408 69 457 64 457 123 c 2
 457 390 l 2
 457 447 432 473 379 473 c 0
 259 473 246 311 246 224 c 0
 246 205 252 115 255 96 c 1
 278 57 339 86 339 32 c 0
 339 21 339 -5 319 -5 c 2
 26 -5 l 2
 23 -5 17 1 17 4 c 1
 16 6 15 30 15 38 c 0
EndSplineSet
EndChar

StartChar: _29
Encoding: 65546 -1 36
Width: 609
VWidth: 0
GlyphClass: 1
Flags: W
LayerCount: 2
Fore
SplineSet
15 125 m 0
 15 283 185 314 309 344 c 1
 323 346 319 368 319 374 c 0
 319 449 296 473 221 473 c 0
 200 473 164 476 144 463 c 1
 144 459 l 2
 144 435 163 416 163 390 c 0
 163 349 133 325 93 325 c 0
 43 325 24 364 24 408 c 0
 24 515 154 546 240 546 c 0
 292 546 442 530 442 445 c 2
 442 123 l 2
 442 97 463 86 483 86 c 0
 539 86 539 182 538 215 c 1
 541 228 559 225 566 225 c 0
 569 225 594 228 594 215 c 2
 594 87 l 2
 594 15 506 -5 455 -5 c 0
 387 -5 337 79 323 79 c 0
 322 79 319 78 318 78 c 0
 310 67 265 22 254 13 c 0
 247 8 222 -5 217 -5 c 2
 98 -5 l 2
 41 -5 15 85 15 125 c 0
143 152 m 0
 143 123 146 105 171 87 c 1
 176 86 199 85 204 85 c 0
 290 85 319 157 319 234 c 0
 319 239 319 265 318 270 c 1
 314 279 311 280 305 280 c 0
 231 280 143 233 143 152 c 0
EndSplineSet
EndChar

StartChar: _30
Encoding: 65547 -1 37
Width: 545
VWidth: 0
GlyphClass: 1
Flags: W
LayerCount: 2
Fore
SplineSet
116.299 114 m 1
 119.299 138 125.299 247 125.299 270 c 0
 125.299 296 119.299 418 116.299 445 c 1
 99.2988 471 45.2988 471 25.2988 472 c 1
 14.2988 484 15.2988 495 15.2988 509 c 0
 15.2988 516 12.2988 534 25.2988 536 c 0
 97.2988 544 168.299 548 240.299 548 c 1
 240.299 435 l 1
 254.299 435 l 1
 288.299 514 331.299 556 415.299 556 c 0
 479.299 556 530.299 514 530.299 444 c 0
 530.299 404 494.299 352 451.299 352 c 0
 415.299 352 390.299 381 390.299 416 c 0
 390.299 447 406.299 459 406.299 487 c 1
 259.299 487 244.299 264 244.299 158 c 0
 244.299 149 239.299 92 263.299 87 c 2
 346.299 68 l 1
 346.299 68 347.299 58 347.299 54 c 0
 347.299 36 344.299 4 318.299 4 c 2
 15.2988 4 l 1
 15.2988 68 l 2
 15.2988 80 101.299 70 116.299 114 c 1
EndSplineSet
EndChar

StartChar: _31
Encoding: 65548 -1 38
Width: 518
VWidth: 0
GlyphClass: 1
Flags: W
LayerCount: 2
Fore
SplineSet
16 206 m 1
 16 216 15 265 15 275 c 0
 15 427 110 556 271 556 c 0
 426 556 503 433 503 287 c 0
 503 272 488 266 475 261 c 1
 454 262 358 262 337 261 c 0
 281 259 146 253 145 252 c 2
 136 243 l 2
 135 241 134 223 134 217 c 0
 134 126 189 86 276 86 c 0
 392 86 406 207 465 207 c 0
 468 207 493 210 493 197 c 0
 493 101 342 13 255 13 c 0
 143 13 41 96 16 206 c 1
135 357 m 0
 135 336 152 325 172 325 c 0
 185 325 246 324 259 324 c 0
 293 324 409 302 402 371 c 0
 394 448 337 482 268 482 c 0
 198 482 135 434 135 357 c 0
EndSplineSet
EndChar

StartChar: _32
Encoding: 65549 -1 39
Width: 591
VWidth: 0
GlyphClass: 1
Flags: W
LayerCount: 2
Fore
SplineSet
15 331 m 0
 15 492 117 643 291 643 c 0
 360 643 448 578 470 578 c 0
 501 578 485 643 530 643 c 0
 543 643 549 640 557 624 c 1
 560 573 567 477 567 409 c 0
 567 379 565 375 534 375 c 0
 468 375 444 578 309 578 c 0
 179 578 140 451 144 339 c 0
 149 226 184 64 328 64 c 0
 451 64 504 179 511 284 c 1
 523 295 534 294 548 294 c 0
 556 294 573 297 576 284 c 1
 576 248 l 2
 576 99 472 -1 328 -1 c 0
 137 -1 15 143 15 331 c 0
EndSplineSet
EndChar

StartChar: _33
Encoding: 65550 -1 40
Width: 444
VWidth: 0
GlyphClass: 1
Flags: W
LayerCount: 2
Fore
SplineSet
15 235 m 0
 15 351 109 441 223 441 c 0
 325 441 429 343 429 238 c 0
 429 234 432 211 420 211 c 2
 135 211 l 1
 117 202 l 2
 117 201 116 189 116 184 c 0
 116 105 169 45 250 45 c 0
 350 45 359 166 411 166 c 0
 423 166 429 160 429 147 c 0
 429 48 323 -10 238 -10 c 0
 97 -10 15 101 15 235 c 0
126 266 m 0
 181 256 208 256 259 256 c 0
 267 256 302 257 309 257 c 1
 319 264 328 269 328 280 c 0
 328 344 268 377 216 377 c 0
 162 377 116 353 116 289 c 0
 116 281 114 269 126 266 c 0
EndSplineSet
EndChar

StartChar: _34
Encoding: 65551 -1 41
Width: 573
VWidth: 0
GlyphClass: 1
Flags: W
LayerCount: 2
Fore
SplineSet
16 33 m 2
 16 66 89 36 89 64 c 2
 89 303 l 2
 89 373 15 341 15 395 c 0
 15 397 16 410 16 413 c 1
 50 425 81 423 117 423 c 0
 125 423 164 422 172 422 c 1
 194 413 177 366 204 366 c 0
 217 366 280 432 346 432 c 0
 529 432 479 201 484 83 c 1
 490 38 558 68 558 23 c 0
 558 18 559 0 548 0 c 2
 328 0 l 2
 313 0 308 17 308 28 c 0
 308 56 370 47 383 83 c 1
 383 94 384 149 384 161 c 0
 384 218 410 386 310 386 c 0
 200 386 189 242 189 165 c 0
 189 153 190 95 190 83 c 1
 203 47 223 48 264 46 c 1
 266 42 273 23 273 18 c 0
 273 13 266 0 264 0 c 2
 25 0 l 2
 24 0 18 19 16 28 c 1
 16 33 l 2
EndSplineSet
EndChar

StartChar: _35
Encoding: 65552 -1 42
Width: 446
VWidth: 0
GlyphClass: 1
Flags: W
LayerCount: 2
Fore
SplineSet
15 211 m 0
 15 329 97 432 217 432 c 0
 324 432 429 349 429 233 c 0
 429 228 430 206 419 206 c 2
 117 206 l 1
 107 193 l 2
 107 192 113 160 117 147 c 0
 134 78 176 45 245 45 c 0
 371 45 342 160 431 160 c 1
 431 60 333 -19 238 -19 c 0
 114 -19 15 87 15 211 c 0
116 279 m 0
 116 274 114 257 126 257 c 2
 330 257 l 1
 330 317 287 377 223 377 c 0
 165 377 116 341 116 279 c 0
EndSplineSet
EndChar

StartChar: _36
Encoding: 65553 -1 43
Width: 435
VWidth: 0
GlyphClass: 1
Flags: W
LayerCount: 2
Fore
SplineSet
34 0 m 1
 23 3 24 15 24 23 c 0
 24 25 25 35 25 37 c 1
 35 39 80 52 89 55 c 0
 92 56 98 63 98 64 c 2
 98 339 l 2
 98 378 15 346 15 390 c 0
 15 397 20 413 25 413 c 2
 181 413 l 1
 181 413 187 355 190 330 c 0
 191 320 186 318 199 312 c 1
 223 369 268 423 332 423 c 0
 378 423 420 399 420 348 c 0
 420 314 400 275 360 275 c 0
 356 275 314 284 314 294 c 2
 314 364 l 1
 314 364 298 369 291 367 c 0
 201 347 199 178 199 124 c 0
 199 16 283 62 283 25 c 0
 283 -10 251 -9 218 -9 c 0
 190 -9 62 -3 34 0 c 1
EndSplineSet
EndChar

StartChar: _37
Encoding: 65554 -1 44
Width: 437
VWidth: 0
GlyphClass: 1
Flags: W
LayerCount: 2
Fore
SplineSet
15 211 m 0
 15 321 83 432 207 432 c 0
 317 432 421 348 421 233 c 0
 421 227 420 212 419 211 c 2
 401 202 l 1
 117 202 l 2
 114 202 108 195 107 193 c 1
 107 166 l 2
 107 95 158 36 231 36 c 0
 347 36 346 161 422 161 c 1
 422 57 329 -20 229 -20 c 0
 91 -20 15 83 15 211 c 0
117 257 m 1
 177 248 204 247 259 247 c 0
 266 247 302 248 309 248 c 1
 322 250 319 269 319 276 c 0
 319 326 269 377 218 377 c 0
 159 377 107 332 107 270 c 0
 107 264 109 261 117 257 c 1
EndSplineSet
EndChar

StartChar: _38
Encoding: 65555 -1 45
Width: 574
VWidth: 0
GlyphClass: 1
Flags: W
LayerCount: 2
Fore
SplineSet
17 23 m 2
 17 57 90 28 90 64 c 2
 90 312 l 2
 90 365 15 339 15 390 c 0
 15 403 16 413 35 413 c 2
 182 413 l 1
 182 409 183 357 205 357 c 0
 218 357 283 431 357 431 c 0
 392 431 480 396 480 349 c 2
 480 83 l 2
 480 42 568 59 558 18 c 0
 557 14 544 1 540 0 c 0
 515 -2 399 -8 375 -9 c 1
 354 -9 l 2
 336 -9 310 -4 310 18 c 0
 310 51 372 41 384 83 c 1
 384 98 385 168 385 184 c 0
 385 239 408 377 315 377 c 0
 198 377 190 231 190 147 c 0
 190 136 191 84 191 73 c 1
 196 42 243 39 265 37 c 1
 265 34 268 21 268 18 c 0
 268 -7 259 -9 228 -9 c 2
 26 -9 l 2
 25 -9 19 10 17 18 c 1
 17 23 l 2
EndSplineSet
EndChar

StartChar: _39
Encoding: 65556 -1 46
Width: 380
VWidth: 0
GlyphClass: 1
Flags: W
LayerCount: 2
Fore
SplineSet
103.125 362 m 1
 25.125 362 l 2
 13.125 362 15.125 392 15.125 395 c 0
 15.125 436 85.125 453 107.125 486 c 0
 110.125 491 136.125 542 144.125 560 c 0
 150.125 572 151.125 606 171.125 606 c 0
 184.125 606 199.125 592 199.125 578 c 2
 199.125 431 l 1
 336.125 431 l 2
 349.125 431 347.125 406 347.125 403 c 0
 347.125 331 241.125 391 208.125 358 c 2
 199.125 349 l 1
 199.125 110 l 2
 199.125 82 224.125 45 254.125 45 c 0
 340.125 45 298.125 202 341.125 202 c 0
 350.125 202 356.125 198 364.125 193 c 1
 364.125 187 365.125 162 365.125 156 c 0
 365.125 51 325.125 -19 212.125 -19 c 0
 173.125 -19 103.125 20 103.125 64 c 2
 103.125 362 l 1
EndSplineSet
EndChar

StartChar: _40
Encoding: 65557 -1 47
Width: 472
VWidth: 0
GlyphClass: 1
Flags: W
LayerCount: 2
Fore
SplineSet
15 213 m 0
 15 346 112 441 243 441 c 0
 372 441 457 349 457 220 c 0
 457 93 355 -10 228 -10 c 0
 102 -10 15 91 15 213 c 0
116 206 m 0
 116 120 142 45 236 45 c 0
 337 45 355 147 355 230 c 0
 355 312 331 386 238 386 c 0
 131 386 116 301 116 206 c 0
EndSplineSet
EndChar

StartChar: _41
Encoding: 65558 -1 48
Width: 307
VWidth: 0
GlyphClass: 1
Flags: W
LayerCount: 2
Fore
SplineSet
15.0234 41 m 0
 15.0234 91 90.0234 60 108.023 101 c 1
 115.023 242 118.023 319 118.023 442 c 0
 118.023 646 25.0234 553 25.0234 610 c 0
 25.0234 616 23.0234 632 35.0234 633 c 2
 181.023 642 l 1
 209.023 633 l 1
 209.023 110 l 2
 209.023 54 292.023 102 292.023 51 c 0
 292.023 20 266.023 20 236.023 18 c 0
 232.023 18 159.023 17 131.023 17 c 0
 115.023 17 41.0234 18 25.0234 18 c 1
 14.0234 21 15.0234 33 15.0234 41 c 0
EndSplineSet
EndChar

StartChar: _42
Encoding: 65559 -1 49
Width: 465
VWidth: 0
GlyphClass: 1
Flags: W
LayerCount: 2
Fore
SplineSet
15 119 m 0
 15 235 155 262 245 284 c 0
 268 290 264 312 264 328 c 0
 264 373 242 404 195 404 c 0
 179 404 110 398 116 367 c 0
 117 364 134 343 135 339 c 2
 135 339 136 327 136 322 c 0
 136 286 115 265 78 265 c 0
 40 265 33 301 33 332 c 0
 33 424 129 451 205 451 c 0
 269 451 355 432 355 349 c 2
 355 147 l 2
 355 118 358 105 385 105 c 0
 389 105 400 109 401 110 c 2
 419 184 l 1
 450 184 l 1
 450 119 428 36 347 36 c 0
 307 36 290 61 263 92 c 1
 258 92 l 2
 233 92 173 27 116 27 c 0
 61 27 15 63 15 119 c 0
98 133 m 0
 98 90 130 81 165 81 c 0
 239 81 267 172 267 233 c 1
 213 233 98 205 98 133 c 0
EndSplineSet
EndChar

StartChar: _44
Encoding: 65560 -1 50
Width: 371
VWidth: 0
GlyphClass: 1
Flags: W
LayerCount: 2
Fore
SplineSet
15 184 m 0
 15 276 85 359 181 359 c 0
 277 359 356 283 356 183 c 0
 356 172 353 156 337 156 c 2
 117 156 l 2
 104 156 107 132 107 128 c 0
 107 72 156 36 208 36 c 0
 282 36 286 115 350 115 c 1
 350 35 277 -10 204 -10 c 0
 89 -10 15 68 15 184 c 0
107 234 m 0
 107 229 105 211 117 211 c 2
 276 211 l 1
 276 263 244 312 185 312 c 0
 147 312 107 272 107 234 c 0
EndSplineSet
EndChar

StartChar: _45
Encoding: 65561 -1 51
Width: 400
VWidth: 0
GlyphClass: 1
Flags: W
LayerCount: 2
Fore
SplineSet
15 71 m 0
 15 125 36 145 80 174 c 1
 80 184 l 1
 44 196 15 217 15 257 c 0
 15 332 100 349 158 349 c 0
 331 349 307 205 309 64 c 1
 312 56 320 36 332 36 c 0
 369 36 348 91 373 101 c 1
 389 99 384 66 384 63 c 0
 384 8 362 -10 310 -10 c 0
 267 -10 255 25 218 37 c 1
 184 8 152 -10 107 -10 c 0
 58 -10 15 20 15 71 c 0
106 95 m 0
 106 66 109 36 144 36 c 0
 196 36 227 88 227 134 c 0
 227 155 220 157 200 157 c 0
 162 157 106 137 106 95 c 0
117 234 m 2
 117 229 l 1
 115 224 109 198 107 193 c 1
 110 193 123 192 126 192 c 0
 160 192 227 185 227 233 c 0
 227 284 195 304 149 304 c 0
 144 304 121 303 117 303 c 1
 107 299 107 293 107 285 c 0
 107 268 117 252 117 234 c 2
EndSplineSet
EndChar

StartChar: _46
Encoding: 65562 -1 52
Width: 326
VWidth: 0
GlyphClass: 1
Flags: W
LayerCount: 2
Fore
SplineSet
15 321 m 0
 15 353 91 388 108 422 c 0
 113 432 132 476 135 486 c 1
 138 489 150 496 154 496 c 0
 158 496 168 489 168 486 c 2
 168 367 l 2
 168 340 283 365 283 321 c 0
 283 310 279 289 264 289 c 2
 181 289 l 1
 172 275 l 1
 172 273 171 231 171 216 c 0
 171 180 148 45 219 45 c 0
 279 45 242 148 291 148 c 0
 312 148 311 132 311 115 c 0
 311 43 271 -10 200 -10 c 0
 171 -10 94 0 94 46 c 2
 94 275 l 2
 94 299 15 278 15 321 c 0
EndSplineSet
EndChar

StartChar: _47
Encoding: 65563 -1 53
Width: 371
VWidth: 0
GlyphClass: 1
Flags: W
LayerCount: 2
Fore
SplineSet
144 340 m 2
 154.92 340 162 296.875 162 284 c 1
 164 284 170 283 171 283 c 0
 194 283 222 349 282 349 c 0
 326 349 356 312 356 271 c 0
 356 233 342 220 304 220 c 0
 283 220 263 225 263 252 c 2
 263 257 l 1
 264 260 272 282 272 284 c 0
 272 296 253 295 248 295 c 0
 174 295 171 154 171 110 c 2
 171 55 l 1
 186 31 229 37 236 9 c 0
 237 5 230 -7 227 -9 c 1
 203 -11 94 -17 71 -18 c 1
 55 -18 l 2
 37 -18 23 -16 23 5 c 0
 23 38 90 11 90 126 c 0
 90 183 88 212 80 275 c 1
 67 300 15 287 15 322 c 0
 15 333 17 340 34 340 c 2
 144 340 l 2
EndSplineSet
EndChar

StartChar: _48
Encoding: 65564 -1 54
Width: 243
VWidth: 0
GlyphClass: 1
Flags: W
LayerCount: 2
Fore
SplineSet
15 4 m 0
 15 33 80 21 80 46 c 2
 80 257 l 2
 80 296 15 276 15 312 c 0
 15 318 15 330 25 330 c 2
 153 330 l 1
 154 293 161 120 162 83 c 0
 164 32 228 37 228 -1 c 0
 228 -16 221 -18 199 -18 c 2
 34 -18 l 2
 24 -18 15 -5 15 4 c 0
69 455 m 0
 69 475 91 496 112 496 c 0
 137 496 162 464 162 440 c 0
 162 420 132 404 116 404 c 0
 86 404 69 429 69 455 c 0
EndSplineSet
EndChar

StartChar: _49
Encoding: 65565 -1 55
Width: 352
VWidth: 0
GlyphClass: 1
Flags: W
LayerCount: 2
Fore
SplineSet
16 101 m 1
 15 109 15 148 15 156 c 0
 15 264 77 340 190 340 c 0
 251 340 329 315 329 240 c 0
 329 215 317 183 287 183 c 0
 261 183 235 201 235 229 c 0
 235 245 246 255 246 271 c 0
 246 294 226 303 204 303 c 0
 118 303 97 242 97 167 c 0
 97 91 116 27 199 27 c 0
 292 27 275 120 318 120 c 0
 334 120 337 111 337 97 c 0
 337 20 256 -28 186 -28 c 0
 103 -28 47 29 16 101 c 1
EndSplineSet
EndChar

StartChar: _50
Encoding: 65566 -1 56
Width: 362
VWidth: 0
GlyphClass: 1
Flags: W
LayerCount: 2
Fore
SplineSet
15 161 m 0
 15 248 68 349 172 349 c 0
 262 349 347 282 347 188 c 0
 347 187 349 151 337 151 c 2
 107 151 l 2
 96 151 97 122 97 119 c 0
 97 60 140 18 199 18 c 0
 261 18 277 101 323 101 c 0
 330 101 344 98 346 92 c 0
 362 28 237 -19 198 -19 c 0
 85 -19 15 48 15 161 c 0
98 220 m 0
 98 208 114 193 126 193 c 2
 263 193 l 2
 276 193 273 217 273 221 c 0
 273 267 237 303 190 303 c 0
 148 303 98 265 98 220 c 0
EndSplineSet
EndChar

StartChar: _58
Encoding: 65567 -1 57
Width: 1023
VWidth: 0
GlyphClass: 1
Flags: W
LayerCount: 2
Fore
SplineSet
15.3262 0 m 0
 15.3262 77 95.3262 24 130.326 71 c 0
 178.326 135 159.326 382 159.326 481 c 0
 159.326 502 158.326 601 158.326 622 c 1
 144.326 721 25.3262 594 25.3262 763 c 1
 395.326 763 l 1
 483.326 410 l 1
 497.326 382 l 1
 512.326 391 520.326 409 526.326 424 c 0
 543.326 471 622.326 688 639.326 735 c 0
 640.326 738 650.326 748 653.326 749 c 0
 716.326 770 777.326 764 844.326 764 c 0
 862.326 764 946.326 764 964.326 763 c 1
 1009.33 782 1008.33 744 1008.33 724 c 0
 1008.33 632 900.326 707 865.326 636 c 0
 808.326 522 835.326 345 835.326 219 c 0
 835.326 197 836.326 93 837.326 71 c 1
 861.326 34 932.326 31 964.326 28 c 1
 964.326 -42 l 1
 540.326 -42 l 2
 527.326 -42 525.326 -30 525.326 -22 c 0
 525.326 91 646.326 -2 667.326 71 c 0
 706.326 208 696.326 360 696.326 502 c 0
 696.326 518 696.326 592 695.326 608 c 1
 681.326 579 l 1
 483.326 -14 l 2
 476.326 -34 457.326 -45 438.326 -45 c 0
 435.326 -45 427.326 -43 427.326 -42 c 2
 271.326 608 l 1
 257.326 594 l 1
 257.326 85 l 2
 257.326 32 358.326 65 358.326 4 c 0
 358.326 0 362.326 -42 342.326 -42 c 2
 31.3262 -42 l 2
 11.3262 -42 15.3262 -5 15.3262 0 c 0
EndSplineSet
EndChar

StartChar: _64
Encoding: 65568 -1 58
Width: 593
VWidth: 0
GlyphClass: 1
Flags: W
LayerCount: 2
Fore
SplineSet
111 26 m 0
 74 26 91 -40 49 -40 c 0
 29 -40 15 -37 15 -15 c 2
 15 0 l 1
 17 42 26 239 28 281 c 1
 42 293 51 295 66 295 c 0
 108 295 128 37 335 37 c 0
 397 37 465 71 465 139 c 0
 465 319 39 213 39 469 c 0
 39 602 132 680 266 680 c 0
 339 680 383 625 450 625 c 0
 480 625 474 678 513 678 c 0
 525 678 539 674 539 659 c 2
 539 652 l 1
 537 617 528 456 526 422 c 1
 527 398 516 395 502 395 c 0
 455 395 398 602 250 602 c 0
 198 602 142 575 142 517 c 0
 142 484 159 458 194 447 c 2
 475 358 l 2
 541 337 578 239 578 179 c 0
 578 48 465 -52 336 -52 c 0
 253 -52 160 26 111 26 c 0
EndSplineSet
EndChar

StartChar: a
Encoding: 97 97 59
Width: 622
VWidth: 0
GlyphClass: 1
Flags: W
PickledData: "(dp1
S'com.typemytype.robofont.layerData'
p2
(dp3
S'back'
p4
(dp5
S'name'
p6
S'a'
sS'lib'
p7
(dp8
sS'unicodes'
p9
(tsS'width'
p10
I622
sS'contours'
p11
((dp12
S'points'
p13
((dp14
S'segmentType'
p15
S'curve'
p16
sS'x'
F151
sS'smooth'
p17
I01
sS'y'
F106
s(dp18
S'y'
F78
sS'x'
F151
sg17
I00
s(dp19
S'y'
F63
sS'x'
F166
sg17
I00
s(dp20
g15
S'curve'
p21
sS'x'
F202
sg17
I01
sS'y'
F63
s(dp22
S'y'
F63
sS'x'
F246
sg17
I00
s(dp23
S'y'
F137
sS'x'
F331
sg17
I00
s(dp24
g15
S'curve'
p25
sS'x'
F331
sg17
I01
sS'y'
F181
s(dp26
g15
S'line'
p27
sS'x'
F331
sg17
I00
sS'y'
F262
s(dp28
S'y'
F197
sS'x'
F297
sg17
I00
s(dp29
S'y'
F184
sS'x'
F151
sg17
I00
stp30
s(dp31
g13
((dp32
g15
S'curve'
p33
sS'x'
F31
sg17
I01
sS'y'
F116
s(dp34
S'y'
F280
sS'x'
F31
sg17
I00
s(dp35
S'y'
F227
sS'x'
F341
sg17
I00
s(dp36
g15
S'curve'
p37
sS'x'
F341
sg17
I01
sS'y'
F379
s(dp38
S'y'
F443
sS'x'
F341
sg17
I00
s(dp39
S'y'
F469
sS'x'
F292
sg17
I00
s(dp40
g15
S'curve'
p41
sS'x'
F235
sg17
I01
sS'y'
F469
s(dp42
S'y'
F469
sS'x'
F207
sg17
I00
s(dp43
S'y'
F456
sS'x'
F176
sg17
I00
s(dp44
g15
S'curve'
p45
sS'x'
F149
sg17
I00
sS'y'
F437
s(dp46
S'y'
F425
sS'x'
F171
sg17
I00
s(dp47
S'y'
F410
sS'x'
F190
sg17
I00
s(dp48
g15
S'curve'
p49
sS'x'
F190
sg17
I01
sS'y'
F384
s(dp50
S'y'
F345
sS'x'
F190
sg17
I00
s(dp51
S'y'
F315
sS'x'
F162
sg17
I00
s(dp52
g15
S'curve'
p53
sS'x'
F122
sg17
I01
sS'y'
F315
s(dp54
S'y'
F315
sS'x'
F76
sg17
I00
s(dp55
S'y'
F357
sS'x'
F55
sg17
I00
s(dp56
g15
S'curve'
p57
sS'x'
F55
sg17
I01
sS'y'
F398
s(dp58
S'y'
F490
sS'x'
F55
sg17
I00
s(dp59
S'y'
F539
sS'x'
F152
sg17
I00
s(dp60
g15
S'curve'
p61
sS'x'
F251
sg17
I01
sS'y'
F539
s(dp62
S'y'
F539
sS'x'
F355
sg17
I00
s(dp63
S'y'
F490
sS'x'
F461
sg17
I00
s(dp64
g15
S'curve'
p65
sS'x'
F461
sg17
I01
sS'y'
F393
s(dp66
g15
S'line'
p67
sS'x'
F461
sg17
I01
sS'y'
F155
s(dp68
S'y'
F122
sS'x'
F461
sg17
I00
s(dp69
S'y'
F69
sS'x'
F462
sg17
I00
s(dp70
g15
S'curve'
p71
sS'x'
F507
sg17
I01
sS'y'
F69
s(dp72
S'y'
F69
sS'x'
F554
sg17
I00
s(dp73
S'y'
F117
sS'x'
F561
sg17
I00
s(dp74
g15
S'curve'
p75
sS'x'
F561
sg17
I01
sS'y'
F160
s(dp76
S'y'
F176
sS'x'
F561
sg17
I00
s(dp77
S'y'
F191
sS'x'
F560
sg17
I00
s(dp78
g15
S'curve'
p79
sS'x'
F560
sg17
I00
sS'y'
F203
s(dp80
g15
S'line'
p81
sS'x'
F616
sg17
I00
sS'y'
F203
s(dp82
S'y'
F89
sS'x'
F616
sg17
I00
s(dp83
S'y'
F-13
sS'x'
F614
sg17
I00
s(dp84
g15
S'curve'
p85
sS'x'
F471
sg17
I01
sS'y'
F-13
s(dp86
S'y'
F-13
sS'x'
F411
sg17
I00
s(dp87
S'y'
F26
sS'x'
F362
sg17
I00
s(dp88
g15
S'curve'
p89
sS'x'
F344
sg17
I00
sS'y'
F83
s(dp90
S'y'
F29
sS'x'
F294
sg17
I00
s(dp91
S'y'
F-13
sS'x'
F247
sg17
I00
s(dp92
g15
S'curve'
p93
sS'x'
F169
sg17
I01
sS'y'
F-13
s(dp94
S'y'
F-13
sS'x'
F87
sg17
I00
s(dp95
S'y'
F31
sS'x'
F31
sg17
I00
stp96
stp97
sS'components'
p98
(tsS'anchors'
p99
(tsss."
LayerCount: 2
Fore
SplineSet
341 379 m 0
 341 442 301 478 246 478 c 0
 201 478 166 471 137 438 c 1
 176 433 196 403 196 374 c 0
 196 343 176 312 126 312 c 0
 75 312 55 353 55 395 c 0
 55 487 152 539 251 539 c 0
 355 539 461 490 461 393 c 2
 461 155 l 2
 461 122 462 69 507 69 c 0
 554 69 561 117 561 160 c 0
 561 176 560 191 560 203 c 1
 616 203 l 1
 616 89 614 -13 471 -13 c 0
 411 -13 358 16 347 86 c 1
 310 16 247 -13 169 -13 c 0
 87 -13 31 31 31 116 c 0
 31 280 341 227 341 379 c 0
202 60 m 0
 256 58 340 136 340 180 c 2
 340 267 l 1
 234 175 150 183 150 114 c 0
 150 82 161 62 202 60 c 0
EndSplineSet
EndChar

StartChar: ampersand
Encoding: 38 38 60
Width: 777
VWidth: 0
GlyphClass: 1
Flags: W
LayerCount: 2
Fore
SplineSet
15 359 m 0
 15 496 101 510 178 606 c 1
 168 738 189 877 350 877 c 0
 440 877 489 833 489 740 c 0
 489 661 438 614 367 579 c 1
 367 552 l 2
 367 549 414 455 434 418 c 0
 440 407 445 403 454 403 c 0
 493 403 530 479 530 517 c 0
 530 581 460 537 460 620 c 1
 762 620 l 1
 762 517 500 465 500 330 c 0
 500 286 574 256 609 256 c 0
 700 256 663 397 760 397 c 1
 760 258 690 160 552 160 c 0
 492 160 449 216 401 216 c 0
 340 216 279 160 210 160 c 0
 95 160 15 246 15 359 c 0
137 405 m 0
 137 335 173 242 258 242 c 0
 272 242 370 267 353 296 c 2
 232 512 l 1
 232 512 224 513 221 513 c 0
 161 513 137 454 137 405 c 0
285 741 m 0
 285 705 289 659 333 659 c 0
 382 659 408 694 408 741 c 0
 408 781 396 809 354 809 c 0
 306 809 285 789 285 741 c 0
EndSplineSet
EndChar

StartChar: b
Encoding: 98 98 61
Width: 607
VWidth: 0
GlyphClass: 1
Flags: W
PickledData: "(dp1
S'com.typemytype.robofont.layerData'
p2
(dp3
S'back'
p4
(dp5
S'name'
p6
S'b'
sS'lib'
p7
(dp8
sS'unicodes'
p9
(tsS'width'
p10
I607
sS'contours'
p11
(tsS'components'
p12
(tsS'anchors'
p13
(tsss."
LayerCount: 2
Fore
SplineSet
-22 750 m 1
 206 750 l 1
 206 460 l 1
 239 509 287 538 345 538 c 0
 481 538 571 418 571 262 c 0
 571 106 484 -13 354 -13 c 0
 289 -13 225 18 184 77 c 1
 146 0 l 1
 81 0 l 1
 81 660 l 1
 -22 660 l 1
 -22 750 l 1
325 457 m 0
 234 457 206 366 206 285 c 0
 206 153 243 75 324 75 c 0
 408 75 439 172 439 256 c 0
 439 343 419 457 325 457 c 0
EndSplineSet
EndChar

StartChar: c
Encoding: 99 99 62
Width: 573
VWidth: 0
GlyphClass: 1
Flags: W
PickledData: "(dp1
S'com.typemytype.robofont.layerData'
p2
(dp3
S'back'
p4
(dp5
S'name'
p6
S'c'
sS'lib'
p7
(dp8
sS'unicodes'
p9
(tsS'width'
p10
I573
sS'contours'
p11
(tsS'components'
p12
(tsS'anchors'
p13
(tsss."
LayerCount: 2
Fore
SplineSet
294 -13 m 0
 156 -13 36 91 36 252 c 0
 36 401 133 539 308 539 c 0
 400 539 518 495 518 369 c 0
 518 336 494 296 442 296 c 0
 403 296 373 317 373 353 c 0
 373 407 425 423 425 423 c 1
 416 440 373 459 321 459 c 0
 222 459 180 371 180 270 c 0
 180 160 223 79 327 79 c 0
 433 79 452 152 467 188 c 1
 531 164 l 1
 507 59 414 -13 294 -13 c 0
EndSplineSet
EndChar

StartChar: c.alt
Encoding: 65569 -1 63
Width: 515
VWidth: 0
GlyphClass: 1
Flags: W
LayerCount: 2
Fore
SplineSet
436 188 m 1
 500 164 l 1
 477 59 388 -13 273 -13 c 0
 135 -13 15 87 15 242 c 0
 15 416 110 539 279 539 c 0
 371 539 488 502 488 390 c 0
 488 352 470 304 425 304 c 0
 386 304 347 331 347 373 c 0
 347 397 363 412 363 436 c 0
 363 471 333 483 300 483 c 0
 171 483 139 393 139 280 c 0
 139 166 168 70 292 70 c 0
 398 70 421 149 436 188 c 1
EndSplineSet
EndChar

StartChar: ccedilla
Encoding: 231 231 64
Width: 525
VWidth: 0
GlyphClass: 1
Flags: W
LayerCount: 2
Fore
SplineSet
446 188 m 1
 510 164 l 1
 486 59 393 -13 273 -13 c 0
 135 -13 15 91 15 252 c 0
 15 401 112 539 287 539 c 0
 379 539 497 495 497 369 c 0
 497 336 473 296 421 296 c 0
 382 296 352 317 352 353 c 0
 352 407 404 423 404 423 c 1
 395 440 352 459 300 459 c 0
 201 459 159 371 159 270 c 0
 159 160 202 79 306 79 c 0
 412 79 431 152 446 188 c 1
334 0 m 1
 334 -115 l 2
 334 -156 213 -187 213 -187 c 1
 199 -165 l 1
 253 -138 l 1
 253 -138 254 -134 254 -132 c 0
 254 -108 225 -97 225 -72 c 0
 225 0 330 1 334 0 c 1
EndSplineSet
EndChar

StartChar: cedilla
Encoding: 184 184 65
Width: 165
VWidth: 0
GlyphClass: 1
Flags: W
LayerCount: 2
Fore
SplineSet
150 -115 m 2
 150 -156 29 -187 29 -187 c 1
 15 -165 l 1
 69 -138 l 1
 69 -138 70 -134 70 -132 c 0
 70 -108 41 -97 41 -72 c 0
 41 0 146 1 150 0 c 1
 150 -115 l 2
EndSplineSet
EndChar

StartChar: d
Encoding: 100 100 66
Width: 640
VWidth: 0
GlyphClass: 1
Flags: W
PickledData: "(dp1
S'com.typemytype.robofont.layerData'
p2
(dp3
S'back'
p4
(dp5
S'name'
p6
S'd'
sS'lib'
p7
(dp8
sS'unicodes'
p9
(tsS'width'
p10
I640
sS'contours'
p11
(tsS'components'
p12
(tsS'anchors'
p13
(tsss."
LayerCount: 2
Fore
SplineSet
259 -13 m 0
 129 -13 42 106 42 262 c 0
 42 418 132 538 268 538 c 0
 326 538 374 509 407 460 c 1
 407 660 l 1
 303 660 l 1
 303 750 l 1
 532 750 l 1
 532 87 l 1
 627 87 l 1
 627 0 l 1
 407 0 l 1
 407 92 l 1
 368 14 312 -13 259 -13 c 0
288 457 m 0
 194 457 174 343 174 256 c 0
 174 172 205 75 289 75 c 0
 370 75 407 153 407 285 c 0
 407 366 379 457 288 457 c 0
EndSplineSet
EndChar

StartChar: e
Encoding: 101 101 67
Width: 570
VWidth: 0
GlyphClass: 1
Flags: W
PickledData: "(dp1
S'com.typemytype.robofont.layerData'
p2
(dp3
S'back'
p4
(dp5
S'name'
p6
S'e'
sS'lib'
p7
(dp8
sS'unicodes'
p9
(tsS'width'
p10
I570
sS'contours'
p11
(tsS'components'
p12
(tsS'anchors'
p13
(tsss."
LayerCount: 2
Fore
SplineSet
36 261 m 0
 36 403 149 539 296 539 c 0
 424.015624046 539 534.976380858 445.39352935 538 267 c 1
 165 267 l 1
 165 202 204 89 318 89 c 0
 383 89 439 124 453 206 c 1
 543 206 l 1
 526 64 417 -14 291 -14 c 0
 131 -14 36 107 36 261 c 0
170 333 m 1
 411 333 l 1
 411 409 371 457 301 457 c 0
 230 457 179 397 170 333 c 1
EndSplineSet
EndChar

StartChar: f
Encoding: 102 102 68
Width: 409
VWidth: 0
GlyphClass: 1
Flags: W
PickledData: "(dp1
S'com.typemytype.robofont.layerData'
p2
(dp3
S'back'
p4
(dp5
S'name'
p6
S'f'
sS'lib'
p7
(dp8
sS'unicodes'
p9
(tsS'width'
p10
I409
sS'contours'
p11
(tsS'components'
p12
(tsS'anchors'
p13
(tsss."
LayerCount: 2
Fore
SplineSet
21 456 m 1
 21 524 l 1
 115 524 l 1
 115 661 176 777 313 777 c 0
 415.176318196 777 464 719.624096125 464 666 c 0
 464 620 435 578 395 578 c 0
 360 578 330 595 330 630 c 0
 330 682 370 687 370 687 c 1
 369 710 347 722 322 722 c 0
 286 722 240 686 240 604 c 2
 240 524 l 1
 353 524 l 1
 353 456 l 1
 240 456 l 1
 240 87 l 1
 368 87 l 1
 368 0 l 1
 8 0 l 1
 8 87 l 1
 115 87 l 1
 115 456 l 1
 21 456 l 1
EndSplineSet
EndChar

StartChar: g
Encoding: 103 103 69
Width: 611
VWidth: 0
GlyphClass: 1
Flags: W
PickledData: "(dp1
S'com.typemytype.robofont.layerData'
p2
(dp3
S'back'
p4
(dp5
S'name'
p6
S'g'
sS'lib'
p7
(dp8
sS'unicodes'
p9
(tsS'width'
p10
I611
sS'contours'
p11
(tsS'components'
p12
(tsS'anchors'
p13
(tsss."
LayerCount: 2
Fore
SplineSet
128 23 m 1
 64 45 41 71 41 116 c 0
 41 190 110 228 110 228 c 1
 72 268 49 326 49 364 c 0
 49 461 142 538 271 538 c 0
 342 538 413 512 444 471 c 1
 444 471 508 524 555 524 c 0
 614 524 639 488 639 453 c 0
 639 422 619 393 583 393 c 0
 552 393 529 417 529 446 c 0
 529 455 531 465 536 474 c 1
 506 470 468 434 468 434 c 1
 479 421 490 389 490 352 c 0
 490 280 449 190 289 190 c 0
 288 190 286 190 284 190 c 0
 279 190 274 190 269 190 c 0
 180 190 131 181 131 140 c 0
 131 125 142 115 170 115 c 2
 381 115 l 2
 495 115 538 36 538 -24 c 0
 538 -167 420 -223 290 -223 c 0
 176 -223 23 -206 23 -86 c 0
 23 -38 45 -3 128 23 c 1
289 -127 m 0
 401 -127 431 -86 431 -58 c 0
 431 9 383 18 333 18 c 0
 291 18 230 18 170 18 c 1
 129 -2 119 -21 119 -54 c 0
 119 -98 152 -127 289 -127 c 0
377 365 m 0
 377 414 360 465 272 465 c 0
 195 465 167 414 167 365 c 0
 167 319 189 261 272 261 c 0
 365 261 377 319 377 365 c 0
EndSplineSet
EndChar

StartChar: h
Encoding: 104 104 70
Width: 729
VWidth: 0
GlyphClass: 1
Flags: W
PickledData: "(dp1
S'com.typemytype.robofont.layerData'
p2
(dp3
S'back'
p4
(dp5
S'name'
p6
S'h'
sS'lib'
p7
(dp8
sS'unicodes'
p9
(tsS'width'
p10
I729
sS'contours'
p11
(tsS'components'
p12
(tsS'anchors'
p13
(tsss."
LayerCount: 2
Fore
SplineSet
610 353 m 2
 610 521 487 538 431 538 c 0
 358 538 292 507 257 424 c 1
 257 750 l 1
 28 750 l 1
 28 660 l 1
 132 660 l 1
 132 87 l 1
 28 87 l 1
 28 0 l 1
 352 0 l 1
 352 87 l 1
 257 87 l 1
 257 262 l 2
 257 357 283 451 393 451 c 0
 437 451 485 427 485 371 c 2
 485 87 l 1
 390 87 l 1
 390 0 l 1
 715 0 l 1
 715 87 l 1
 610 87 l 1
 610 353 l 2
EndSplineSet
EndChar

StartChar: i
Encoding: 105 105 71
Width: 347
VWidth: 0
GlyphClass: 1
Flags: W
PickledData: "(dp1
S'com.typemytype.robofont.layerData'
p2
(dp3
S'back'
p4
(dp5
S'name'
p6
S'i'
sS'lib'
p7
(dp8
sS'unicodes'
p9
(tsS'width'
p10
F347
sS'contours'
p11
(tsS'components'
p12
(tsS'anchors'
p13
(tsss."
LayerCount: 2
Fore
SplineSet
241 524 m 1
 241 87 l 1
 326 87 l 1
 326 0 l 1
 32 0 l 1
 32 87 l 1
 116 87 l 1
 116 434 l 1
 32 434 l 1
 32 524 l 1
 241 524 l 1
114 711 m 0
 114 747 144 777 180 777 c 0
 216 777 246 747 246 711 c 0
 246 675 216 645 180 645 c 0
 144 645 114 675 114 711 c 0
EndSplineSet
EndChar

StartChar: j
Encoding: 106 106 72
Width: 340
VWidth: 0
GlyphClass: 1
Flags: W
PickledData: "(dp1
S'com.typemytype.robofont.layerData'
p2
(dp3
S'back'
p4
(dp5
S'name'
p6
S'j'
sS'lib'
p7
(dp8
sS'unicodes'
p9
(tsS'width'
p10
F340
sS'contours'
p11
(tsS'components'
p12
(tsS'anchors'
p13
(tsss."
LayerCount: 2
Fore
SplineSet
128 711 m 0
 128 747 158 777 194 777 c 0
 230 777 260 747 260 711 c 0
 260 675 230 645 194 645 c 0
 158 645 128 675 128 711 c 0
130 -16 m 2
 130 434 l 1
 29 434 l 1
 29 524 l 1
 255 524 l 1
 255 -1 l 2
 255 -108 148 -158 51 -158 c 0
 -42 -158 -79 -113 -79 -74 c 0
 -79 -42 -55 -13 -17 -13 c 0
 19 -13 44 -39 44 -65 c 0
 44 -79 38 -94 30 -107 c 1
 30 -107 48 -110 59 -110 c 0
 108 -110 130 -56 130 -16 c 2
EndSplineSet
EndChar

StartChar: k
Encoding: 107 107 73
Width: 662
VWidth: 0
GlyphClass: 1
Flags: W
LayerCount: 2
Fore
SplineSet
239 750 m 1
 239 282 l 1
 296.338 332.996 352.272 385.395 409 437 c 1
 310 437 l 1
 310 524 l 1
 637 524 l 1
 637 437 l 1
 534 437 l 1
 394 308 l 1
 554 87 l 1
 647 87 l 1
 647 0 l 1
 350 0 l 1
 350 87 l 1
 429 87 l 1
 319 250 l 1
 239 180 l 1
 239 87 l 1
 312 87 l 1
 312 0 l 1
 15 0 l 1
 15 87 l 1
 114 87 l 1
 114 660 l 1
 15 660 l 1
 15 750 l 1
 239 750 l 1
EndSplineSet
EndChar

StartChar: l
Encoding: 108 108 74
Width: 347
VWidth: 0
GlyphClass: 1
Flags: W
LayerCount: 2
Fore
SplineSet
239 750 m 1
 239 87 l 1
 332 87 l 1
 332 0 l 1
 15 0 l 1
 15 87 l 1
 114 87 l 1
 114 660 l 1
 15 660 l 1
 15 750 l 1
 239 750 l 1
EndSplineSet
EndChar

StartChar: m
Encoding: 109 109 75
Width: 946
VWidth: 0
GlyphClass: 1
Flags: W
PickledData: "(dp1
S'com.typemytype.robofont.layerData'
p2
(dp3
S'back'
p4
(dp5
S'name'
p6
S'm'
sS'lib'
p7
(dp8
sS'unicodes'
p9
(tsS'width'
p10
I946
sS'contours'
p11
((dp12
S'points'
p13
((dp14
S'segmentType'
p15
S'curve'
p16
sS'x'
F608
sS'smooth'
p17
I01
sS'y'
F353
s(dp18
g15
S'line'
p19
sS'x'
F608
sg17
I00
sS'y'
F87
s(dp20
g15
S'line'
p21
sS'x'
F712
sg17
I00
sS'y'
F87
s(dp22
g15
S'line'
p23
sS'x'
F712
sg17
I00
sS'y'
F0
s(dp24
g15
S'line'
p25
sS'x'
F388
sg17
I00
sS'y'
F0
s(dp26
g15
S'line'
p27
sS'x'
F388
sg17
I00
sS'y'
F87
s(dp28
g15
S'line'
p29
sS'x'
F483
sg17
I00
sS'y'
F87
s(dp30
g15
S'line'
p31
sS'x'
F483
sg17
I01
sS'y'
F341
s(dp32
S'y'
F429
sS'x'
F483
sg17
I00
s(dp33
S'y'
F451
sS'x'
F429
sg17
I00
s(dp34
g15
S'curve'
p35
sS'x'
F383
sg17
I01
sS'y'
F451
s(dp36
S'y'
F451
sS'x'
F264
sg17
I00
s(dp37
S'y'
F354
sS'x'
F255
sg17
I00
s(dp38
g15
S'curve'
p39
sS'x'
F255
sg17
I01
sS'y'
F262
s(dp40
g15
S'line'
p41
sS'x'
F255
sg17
I00
sS'y'
F87
s(dp42
g15
S'line'
p43
sS'x'
F349
sg17
I00
sS'y'
F87
s(dp44
g15
S'line'
p45
sS'x'
F349
sg17
I00
sS'y'
F0
s(dp46
g15
S'line'
p47
sS'x'
F26
sg17
I00
sS'y'
F0
s(dp48
g15
S'line'
p49
sS'x'
F26
sg17
I00
sS'y'
F87
s(dp50
g15
S'line'
p51
sS'x'
F130
sg17
I00
sS'y'
F87
s(dp52
g15
S'line'
p53
sS'x'
F130
sg17
I00
sS'y'
F434
s(dp54
g15
S'line'
p55
sS'x'
F26
sg17
I00
sS'y'
F434
s(dp56
g15
S'line'
p57
sS'x'
F26
sg17
I00
sS'y'
F524
s(dp58
g15
S'line'
p59
sS'x'
F252
sg17
I00
sS'y'
F524
s(dp60
S'y'
F499.5
sS'x'
F252
sg17
I00
s(dp61
S'y'
F427
sS'x'
F252
sg17
I00
s(dp62
g15
S'curve'
p63
sS'x'
F252
sg17
I00
sS'y'
F426
s(dp64
S'y'
F508
sS'x'
F288
sg17
I00
s(dp65
S'y'
F538
sS'x'
F356
sg17
I00
s(dp66
g15
S'curve'
p67
sS'x'
F429
sg17
I01
sS'y'
F538
s(dp68
S'y'
F538
sS'x'
F485
sg17
I00
s(dp69
S'y'
F521
sS'x'
F608
sg17
I00
stp70
stp71
sS'components'
p72
(tsS'anchors'
p73
(tsss."
LayerCount: 2
Fore
SplineSet
320 0 m 1
 320 87 l 1
 255 87 l 1
 255 262 l 2
 255 354 261 451 353 451 c 0
 389 451 433 430 433 371 c 2
 433 87 l 1
 360 87 l 1
 360 0 l 1
 622 0 l 1
 622 87 l 1
 558 87 l 1
 558 353 l 2
 558 405.952809179 586.160926027 451 648 451 c 0
 684 451 728 430 728 371 c 2
 728 87 l 1
 656 87 l 1
 656 0 l 1
 932 0 l 1
 932 87 l 1
 853 87 l 1
 853 353 l 2
 853 521 744 538 694 538 c 0
 630 538 578 512 543 433 c 1
 516 532 446 538 405 538 c 0
 344 538 281 500 252 433 c 1
 252 524 l 1
 26 524 l 1
 26 434 l 1
 130 434 l 1
 130 87 l 1
 26 87 l 1
 26 0 l 1
 320 0 l 1
EndSplineSet
EndChar

StartChar: n
Encoding: 110 110 76
Width: 726
VWidth: 0
GlyphClass: 1
Flags: W
PickledData: "(dp1
S'com.typemytype.robofont.layerData'
p2
(dp3
S'back'
p4
(dp5
S'name'
p6
S'n'
sS'lib'
p7
(dp8
sS'unicodes'
p9
(tsS'width'
p10
I726
sS'contours'
p11
(tsS'components'
p12
(tsS'anchors'
p13
(tsss."
LayerCount: 2
Fore
SplineSet
608 353 m 2
 608 87 l 1
 712 87 l 1
 712 0 l 1
 388 0 l 1
 388 87 l 1
 483 87 l 1
 483 341 l 2
 483 429 429 451 383 451 c 0
 264 451 255 354 255 262 c 2
 255 87 l 1
 349 87 l 1
 349 0 l 1
 26 0 l 1
 26 87 l 1
 130 87 l 1
 130 434 l 1
 26 434 l 1
 26 524 l 1
 252 524 l 1
 252 499.5 252 427 252 426 c 1
 288 508 356 538 429 538 c 0
 485 538 608 521 608 353 c 2
EndSplineSet
EndChar

StartChar: o
Encoding: 111 111 77
Width: 596
VWidth: 0
GlyphClass: 1
Flags: W
PickledData: "(dp1
S'com.typemytype.robofont.layerData'
p2
(dp3
S'back'
p4
(dp5
S'name'
p6
S'o'
sS'lib'
p7
(dp8
sS'unicodes'
p9
(tsS'width'
p10
I596
sS'contours'
p11
(tsS'components'
p12
(tsS'anchors'
p13
(tsss."
LayerCount: 2
Fore
SplineSet
299 -13 m 0
 139 -13 36 106 36 262 c 0
 36 418 138 538 298 538 c 0
 458 538 560 418 560 262 c 0
 560 108 458 -13 299 -13 c 0
298 457 m 0
 188 457 168 343 168 256 c 0
 168 172 199 75 299 75 c 0
 398 75 428 174 428 256 c 0
 428 343 408 457 298 457 c 0
EndSplineSet
EndChar

StartChar: p
Encoding: 112 112 78
Width: 615
VWidth: 0
GlyphClass: 1
Flags: W
LayerCount: 2
Fore
SplineSet
15 -196 m 1
 15 -109 l 1
 110 -109 l 1
 110 437 l 1
 15 437 l 1
 15 524 l 1
 235 524 l 1
 235 425 l 1
 270 511 330 538 383 538 c 0
 513 538 600 418 600 262 c 0
 600 106 510 -13 374 -13 c 0
 316 -13 268 19 235 74 c 1
 235 -106 l 1
 339 -106 l 1
 339 -196 l 1
 15 -196 l 1
354 67 m 0
 448 67 468 181 468 268 c 0
 468 352 437 449 353 449 c 0
 272 449 235 371 235 239 c 0
 235 158 263 67 354 67 c 0
EndSplineSet
EndChar

StartChar: q
Encoding: 113 113 79
Width: 623
VWidth: 0
GlyphClass: 1
Flags: W
LayerCount: 2
Fore
SplineSet
275 -195 m 1
 275 -110 l 1
 380 -110 l 1
 380 64 l 1
 347 15 299 -14 241 -14 c 0
 105 -14 15 106 15 262 c 0
 15 418 102 538 232 538 c 0
 297 538 358 506 402 447 c 1
 443 524 l 1
 505 524 l 1
 505 -110 l 1
 608 -110 l 1
 608 -195 l 1
 275 -195 l 1
261 67 m 0
 352 67 380 158 380 239 c 0
 380 371 343 450 262 450 c 0
 178 450 147 352 147 268 c 0
 147 181 167 67 261 67 c 0
EndSplineSet
EndChar

StartChar: r
Encoding: 114 114 80
Width: 513
VWidth: 0
GlyphClass: 1
Flags: W
LayerCount: 2
Fore
SplineSet
385 532 m 0
 454 532 498 492 498 420 c 0
 498 327 347 319 347 418 c 0
 347 442 367 473 367 473 c 1
 290 473 224 422 224 331 c 2
 224 87 l 1
 309 87 l 1
 309 0 l 1
 15 0 l 1
 15 87 l 1
 99 87 l 1
 99 434 l 1
 15 434 l 1
 15 524 l 1
 214 524 l 1
 204 388 l 1
 237 496 305 532 385 532 c 0
EndSplineSet
EndChar

StartChar: s
Encoding: 115 115 81
Width: 479
VWidth: 0
GlyphClass: 1
Flags: W
LayerCount: 2
Fore
SplineSet
263 53 m 0
 307 53 354 76 354 126 c 0
 354 256 15 130 15 377 c 0
 15 478 101 537 189 537 c 0
 244 537 300 514 336 464 c 1
 350 524 l 1
 408 524 l 1
 408 330 l 1
 357 330 l 1
 319 397 273 464 191 464 c 0
 149 464 112 447 112 406 c 0
 112 282 464 368 464 152 c 0
 464 36 371 -15 278 -15 c 0
 208 -15 137 14 104 64 c 1
 76 0 l 1
 29 0 l 1
 29 198 l 1
 94 198 l 1
 103 121 185 53 263 53 c 0
EndSplineSet
EndChar

StartChar: t
Encoding: 116 116 83
Width: 430
VWidth: 0
GlyphClass: 1
Flags: W
LayerCount: 2
Fore
SplineSet
115 457 m 1
 15 457 l 1
 15 510 l 1
 162 553 180 652 203 777 c 0
 205 788 215 794 225 794 c 0
 235 794 244 788 244 777 c 2
 244 524 l 1
 387 524 l 1
 387 456 l 1
 244 456 l 1
 244 149 l 2
 244 132 244 82 297 82 c 0
 340 82 344 138 344 182 c 2
 344 220 l 1
 415 220 l 1
 419 91 399 -13 258 -13 c 0
 195 -13 115 31 115 136 c 2
 115 457 l 1
EndSplineSet
EndChar

StartChar: tt
Encoding: 65570 -1 84
Width: 797
VWidth: 0
GlyphClass: 2
Flags: W
LayerCount: 2
Fore
SplineSet
481.228 457 m 1
 481.228 136 l 2
 481.228 31 561.228 -13 624.228 -13 c 0
 765.228 -13 785.228 91 781.228 220 c 1
 710.228 220 l 1
 710.228 182 l 2
 710.228 138 706.228 82 663.228 82 c 0
 610.228 82 610.228 132 610.228 149 c 2
 610.228 456 l 1
 753.228 456 l 1
 753.228 524 l 1
 610.228 524 l 1
 610.228 777 l 2
 610.228 788 601.228 794 591.228 794 c 0
 581.228 794 571.228 788 569.228 777 c 0
 546.228 652 492.341 524 426.341 524 c 2
 244 524 l 1
 244 777 l 2
 244 788 235 794 225 794 c 0
 215 794 205 788 203 777 c 0
 180 652 162 553 15 510 c 1
 15 457 l 1
 115 457 l 1
 115 136 l 2
 115 31 195 -13 258 -13 c 0
 399 -13 419 91 415 220 c 1
 344 220 l 1
 344 182 l 2
 344 138 340 82 297 82 c 0
 244 82 244 132 244 149 c 2
 244 456 l 1
 481.228 457 l 1
EndSplineSet
Ligature2: "ligaStandardLigaturesinLatinloo subtable" t t
EndChar

StartChar: u
Encoding: 117 117 85
Width: 687
VWidth: 0
GlyphClass: 1
Flags: W
LayerCount: 2
Fore
SplineSet
245 524 m 1
 245 153 l 2
 245 94 294 74 335 74 c 0
 436 74 443 170 443 262 c 2
 443 437 l 1
 348 437 l 1
 348 524 l 1
 568 524 l 1
 568 90 l 1
 672 90 l 1
 672 0 l 1
 446 0 l 1
 446 129 l 1
 414 16 354 -13 289 -13 c 0
 236 -13 120 3 120 171 c 2
 120 437 l 1
 15 437 l 1
 15 524 l 1
 245 524 l 1
EndSplineSet
EndChar

StartChar: ydieresis
Encoding: 255 255 86
Width: 938
VWidth: 0
GlyphClass: 1
Flags: W
LayerCount: 2
Fore
SplineSet
171 133 m 1
 165 294 161 451 152 610 c 1
 122 651 72 646 24 647 c 1
 15 656 l 1
 15 739 l 1
 98 744 187 749 272 749 c 0
 282 749 308 748 308 748 c 1
 318 739 l 1
 336 152 l 2
 338 100 396 95 432 95 c 0
 544 95 611 213 611 317 c 2
 611 601 l 2
 611 609 587 643 584 643 c 2
 455 643 l 1
 455 739 l 1
 494 740 674 747 712 748 c 1
 767 748 l 1
 770 746 776 733 776 730 c 0
 777 721 776 647 776 638 c 0
 777 560 784 193 786 115 c 1
 800 73 923 98 923 78 c 2
 923 -4 l 1
 616 -4 l 1
 616 124 l 1
 602 133 l 1
 562 37 485 -14 384 -14 c 0
 285 -14 196 30 171 133 c 1
EndSplineSet
EndChar
